<svg width="60" height="60" viewBox="0 0 60 60" fill="none" xmlns="http://www.w3.org/2000/svg">
    <path d="M30 0C13.4573 0 0 13.4573 0 30C0 46.5427 13.4573 60 30 60C46.5427 60 60 46.5427 60 30C60 13.4573 46.5427 0 30 0Z" fill="#DA4E22"/>
    <path d="M40.2565 23.3332L33.5906 29.9998L40.2565 36.6661C41.248 37.658 41.248 39.2648 40.2565 40.2567C39.7611 40.7521 39.1116 41 38.4624 41C37.8121 41 37.1625 40.7525 36.6675 40.2567L30.0001 33.5896L23.3332 40.2566C22.8379 40.752 22.1883 40.9999 21.5385 40.9999C20.889 40.9999 20.2398 40.7524 19.744 40.2566C18.7525 39.2652 18.7525 37.6584 19.744 36.6661L26.4097 29.9998L19.7436 23.3332C18.7521 22.3417 18.7521 20.7346 19.7436 19.7431C20.735 18.7523 22.3412 18.7523 23.3329 19.7431L30 26.4097L36.6667 19.7431C37.6586 18.7523 39.265 18.7523 40.2561 19.7431C41.248 20.7346 41.248 22.3417 40.2565 23.3332Z" fill="white"/>
</svg>