<svg width="60" height="60" viewBox="0 0 60 60" fill="none" xmlns="http://www.w3.org/2000/svg">
    <path d="M30 0C13.4573 0 0 13.4573 0 30C0 46.5427 13.4573 60 30 60C46.5427 60 60 46.5427 60 30C60 13.4573 46.5427 0 30 0Z" fill="#B5DA22"/>
    <path d="M45.2047 23.6424L28.9546 39.8921C28.467 40.3796 27.8271 40.625 27.1871 40.625C26.5472 40.625 25.9072 40.3796 25.4197 39.8921L17.2949 31.7672C16.3171 30.7899 16.3171 29.2097 17.2949 28.2324C18.2722 27.2546 19.8519 27.2546 20.8297 28.2324L27.1871 34.5898L41.6699 20.1075C42.6472 19.1298 44.2269 19.1298 45.2047 20.1075C46.182 21.0849 46.182 22.6646 45.2047 23.6424Z" fill="#FAFAFA"/>
</svg>