<svg width="76" height="76" viewBox="0 0 76 76" fill="none" xmlns="http://www.w3.org/2000/svg">
    <path d="M71.821 0.997559H24.3869C23.3947 1.00053 22.4439 1.39657 21.7423 2.09919C21.0406 2.80181 20.6451 3.75391 20.6422 4.74756V18.4976H1.91819C1.58713 18.4976 1.26963 18.6293 1.03553 18.8637C0.801435 19.0981 0.669922 19.416 0.669922 19.7476V69.7476C0.669922 70.0791 0.801435 70.397 1.03553 70.6314C1.26963 70.8659 1.58713 70.9976 1.91819 70.9976H20.6422V72.2476C20.6451 73.2412 21.0406 74.1933 21.7423 74.8959C22.4439 75.5985 23.3947 75.9946 24.3869 75.9976H71.821C72.8133 75.9946 73.7641 75.5985 74.4657 74.8959C75.1673 74.1933 75.5628 73.2412 75.5658 72.2476V4.74756C75.5628 3.75391 75.1673 2.80181 74.4657 2.09919C73.7641 1.39657 72.8133 1.00053 71.821 0.997559ZM5.66298 68.4976H3.16645V20.9976H5.66298V68.4976ZM8.15951 68.4976V20.9976H35.6213V68.4976H8.15951ZM73.0693 72.2476C73.0693 72.5791 72.9378 72.897 72.7037 73.1314C72.4696 73.3659 72.1521 73.4976 71.821 73.4976H24.3869C24.0559 73.4976 23.7384 73.3659 23.5043 73.1314C23.2702 72.897 23.1387 72.5791 23.1387 72.2476V70.9976H36.8696C37.2007 70.9976 37.5182 70.8659 37.7523 70.6314C37.9863 70.397 38.1179 70.0791 38.1179 69.7476V19.7476C38.1179 19.416 37.9863 19.0981 37.7523 18.8637C37.5182 18.6293 37.2007 18.4976 36.8696 18.4976H23.1387V4.74756C23.1387 4.41604 23.2702 4.0981 23.5043 3.86368C23.7384 3.62925 24.0559 3.49756 24.3869 3.49756H71.821C72.1521 3.49756 72.4696 3.62925 72.7037 3.86368C72.9378 4.0981 73.0693 4.41604 73.0693 4.74756V72.2476Z" fill="white"/>
    <path d="M67.0676 48.6863C66.8336 48.452 66.5161 48.3203 66.1851 48.3203C65.8541 48.3203 65.5367 48.452 65.3026 48.6863L55.5936 58.4087L51.1797 53.99C50.9456 53.7557 50.6281 53.624 50.2971 53.624C49.9662 53.624 49.6487 53.7557 49.4146 53.99L45.8845 57.525C45.6505 57.7594 45.519 58.0772 45.519 58.4087C45.519 58.7401 45.6505 59.058 45.8845 59.2924L54.711 68.1311C54.9451 68.3654 55.2626 68.4971 55.5936 68.4971C55.9245 68.4971 56.242 68.3654 56.4761 68.1311L70.599 53.99C70.715 53.8739 70.8071 53.736 70.8699 53.5843C70.9328 53.4325 70.9651 53.2699 70.9651 53.1056C70.9651 52.9414 70.9328 52.7787 70.8699 52.6269C70.8071 52.4752 70.715 52.3373 70.599 52.2213L67.0676 48.6863ZM55.5936 65.4799L48.5321 58.4087L50.2971 56.6412L54.711 61.0599C54.9451 61.2942 55.2626 61.4259 55.5936 61.4259C55.9245 61.4259 56.242 61.2942 56.4761 61.0599L66.1851 51.3375L67.9514 53.1062L55.5936 65.4799Z" fill="white"/>
    <path d="M68.0764 14.7476V9.74756C68.0764 9.41604 67.9448 9.0981 67.7107 8.86368C67.4767 8.62925 67.1591 8.49756 66.8281 8.49756H29.3801C29.049 8.49756 28.7315 8.62925 28.4974 8.86368C28.2633 9.0981 28.1318 9.41604 28.1318 9.74756V14.7476C28.1318 15.0791 28.2633 15.397 28.4974 15.6314C28.7315 15.8659 29.049 15.9976 29.3801 15.9976H66.8281C67.1591 15.9976 67.4767 15.8659 67.7107 15.6314C67.9448 15.397 68.0764 15.0791 68.0764 14.7476ZM65.5798 13.4976H30.6284V10.9976H65.5798V13.4976Z" fill="white"/>
    <path d="M45.6074 20.9976H50.6005V23.4976H45.6074V20.9976Z" fill="white"/>
    <path d="M53.0972 20.9976H68.0764V23.4976H53.0972V20.9976Z" fill="white"/>
    <path d="M45.6074 28.4976H50.6005V30.9976H45.6074V28.4976Z" fill="white"/>
    <path d="M53.0972 28.4976H68.0764V30.9976H53.0972V28.4976Z" fill="white"/>
    <path d="M45.6074 35.9976H50.6005V38.4976H45.6074V35.9976Z" fill="white"/>
    <path d="M53.0972 35.9976H68.0764V38.4976H53.0972V35.9976Z" fill="white"/>
    <path d="M45.6074 43.4976H50.6005V45.9976H45.6074V43.4976Z" fill="white"/>
    <path d="M53.0972 43.4976H68.0764V45.9976H53.0972V43.4976Z" fill="white"/>
    <path d="M21.8903 38.4976C20.6559 38.4976 19.4492 38.8641 18.4228 39.5509C17.3964 40.2376 16.5964 41.2137 16.124 42.3558C15.6516 43.4978 15.528 44.7545 15.7689 45.9669C16.0097 47.1793 16.6041 48.2929 17.477 49.167C18.3499 50.0411 19.462 50.6363 20.6727 50.8775C21.8834 51.1186 23.1383 50.9948 24.2788 50.5218C25.4192 50.0488 26.394 49.2477 27.0798 48.2199C27.7656 47.1921 28.1317 45.9837 28.1317 44.7476C28.1297 43.0906 27.4715 41.502 26.3014 40.3303C25.1314 39.1587 23.545 38.4995 21.8903 38.4976ZM21.8903 48.4976C21.1496 48.4976 20.4256 48.2776 19.8098 47.8656C19.194 47.4535 18.714 46.8678 18.4305 46.1826C18.1471 45.4974 18.0729 44.7434 18.2174 44.016C18.3619 43.2885 18.7186 42.6204 19.2423 42.0959C19.766 41.5715 20.4333 41.2143 21.1597 41.0696C21.8861 40.9249 22.6391 40.9992 23.3234 41.283C24.0076 41.5668 24.5925 42.0475 25.004 42.6642C25.4155 43.2809 25.6351 44.0059 25.6351 44.7476C25.6351 45.7421 25.2406 46.6959 24.5383 47.3992C23.836 48.1025 22.8835 48.4976 21.8903 48.4976Z" fill="white"/>
    <path d="M31.8762 28.4976C30.884 28.4946 29.9332 28.0986 29.2316 27.3959C28.5299 26.6933 28.1344 25.7412 28.1315 24.7476C28.1315 24.416 27.9999 24.0981 27.7658 23.8637C27.5318 23.6293 27.2143 23.4976 26.8832 23.4976H16.8971C16.566 23.4976 16.2485 23.6293 16.0144 23.8637C15.7803 24.0981 15.6488 24.416 15.6488 24.7476C15.6459 25.7412 15.2504 26.6933 14.5487 27.3959C13.8471 28.0986 12.8963 28.4946 11.904 28.4976C11.573 28.4976 11.2555 28.6293 11.0214 28.8637C10.7873 29.0981 10.6558 29.416 10.6558 29.7476V59.7476C10.6558 60.0791 10.7873 60.397 11.0214 60.6314C11.2555 60.8659 11.573 60.9976 11.904 60.9976C12.8963 61.0005 13.8471 61.3966 14.5487 62.0992C15.2504 62.8018 15.6459 63.7539 15.6488 64.7476C15.6488 65.0791 15.7803 65.397 16.0144 65.6314C16.2485 65.8659 16.566 65.9976 16.8971 65.9976H26.8832C27.2143 65.9976 27.5318 65.8659 27.7658 65.6314C27.9999 65.397 28.1315 65.0791 28.1315 64.7476C28.1344 63.7539 28.5299 62.8018 29.2316 62.0992C29.9332 61.3966 30.884 61.0005 31.8762 60.9976C32.2073 60.9976 32.5248 60.8659 32.7589 60.6314C32.993 60.397 33.1245 60.0791 33.1245 59.7476V29.7476C33.1245 29.416 32.993 29.0981 32.7589 28.8637C32.5248 28.6293 32.2073 28.4976 31.8762 28.4976ZM30.628 58.6226C29.4292 58.869 28.329 59.4623 27.4637 60.3288C26.5983 61.1954 26.0059 62.2971 25.7598 63.4976H18.0205C17.7744 62.2971 17.182 61.1954 16.3166 60.3288C15.4513 59.4623 14.3511 58.869 13.1523 58.6226V30.8726C14.3511 30.6261 15.4513 30.0328 16.3166 29.1663C17.182 28.2997 17.7744 27.198 18.0205 25.9976H25.7598C26.0059 27.198 26.5983 28.2997 27.4637 29.1663C28.329 30.0328 29.4292 30.6261 30.628 30.8726V58.6226Z" fill="white"/>
</svg>
