<svg width="76" height="76" viewBox="0 0 76 76" fill="none" xmlns="http://www.w3.org/2000/svg">
    <path d="M75.1167 32.4497H72.4022L68.3565 34.5814C67.9011 34.3297 67.4275 34.1165 66.9167 33.9883L61.8275 32.7131V32.1337C64.079 30.5601 65.4527 27.9606 65.4527 25.1916V23.077C65.4527 18.3777 61.7756 14.4451 57.2562 14.308C57.0268 14.3021 56.8009 14.3104 56.5738 14.3216L57.8933 11.2283L51.4964 4.82436L47.7255 7.28211C46.2928 6.47408 44.7775 5.84503 43.2038 5.4038L42.2724 0.998047H33.0662L32.1348 5.40498C30.5611 5.84621 29.0446 6.47526 27.613 7.28329L23.8422 4.82554L17.4506 11.226L18.7477 14.3216C18.6981 14.3193 18.651 14.3104 18.6014 14.3092C16.288 14.2419 14.1092 15.0871 12.4541 16.6961C10.7966 18.3039 9.8847 20.4616 9.8847 22.7722V25.1916C9.8847 27.9606 11.2573 30.5589 13.5087 32.1325V32.7131L10.1891 33.5442L4.17207 30.0303H0.220703V55.0963L12.1049 59.0626H14.4194L14.7084 58.049L18.3513 60.2386C18.4109 62.222 19.9993 63.818 21.9783 63.8877C22.0479 65.8611 23.6316 67.447 25.6023 67.5167C25.6719 69.4901 27.2556 71.0761 29.2263 71.1458C29.2982 73.1652 30.9498 74.7884 32.983 74.7884C33.738 74.7884 34.4782 74.5527 35.1005 74.1327L36.1705 75.079C36.8412 75.6702 37.7047 75.998 38.6012 75.998H38.8248C40.835 75.998 42.4706 74.3708 42.496 72.3643C44.4843 72.3389 46.0946 70.7264 46.12 68.7353C48.1095 68.7099 49.721 67.095 49.744 65.1027C51.7518 65.0554 53.3727 63.4128 53.3727 61.391C53.3727 61.2693 53.3668 61.1494 53.3544 61.0283L75.1167 50.1329V32.4497ZM63.0367 23.077V25.1916C63.0367 27.3387 61.8782 29.3445 60.0132 30.4261L59.4092 30.7757L59.4139 34.6038L65.4492 36.1135L52.1647 43.1153V39.8566C52.1647 38.2305 51.5088 36.7414 50.4347 35.641L54.5807 34.6038V30.7728L53.9779 30.4237C52.114 29.3445 50.9567 27.3387 50.9567 25.1916V22.7722C50.9567 21.1225 51.6079 19.5797 52.7917 18.4309C53.9743 17.2826 55.5433 16.6636 57.1837 16.7274C60.4107 16.8243 63.0367 19.673 63.0367 23.077ZM39.4901 42.1643L34.0217 40.4142C31.5296 39.6144 28.8323 39.4951 26.2812 40.0609L25.5887 40.2145V39.8566C25.5887 38.1885 26.7183 36.7402 28.3332 36.335L35.2527 34.6038V30.7728L34.6499 30.4237C32.786 29.3445 31.6287 27.3387 31.6287 25.1916V22.7722C31.6287 21.1225 32.2799 19.5797 33.4637 18.4309C34.6463 17.2826 36.2254 16.6636 37.8557 16.7274C41.0827 16.8243 43.7087 19.673 43.7087 23.077V25.1916C43.7087 27.3387 42.5502 29.3445 40.6852 30.4261L40.0812 30.7757L40.0859 34.6038L47.0042 36.335C48.6191 36.7402 49.7487 38.1885 49.7487 39.8566V44.3893L49.4502 44.5464H48.71L41.2833 42.4212C40.6981 42.2553 40.0953 42.1873 39.4901 42.1643ZM25.8594 19.103C28.128 14.7014 32.694 11.8851 37.6687 11.8851C42.5963 11.8851 47.1428 14.6636 49.4284 19.0056C48.8533 20.1603 48.5407 21.4391 48.5407 22.7722V25.1916C48.5407 27.9606 49.9133 30.5589 52.1647 32.1325V32.7131L47.3327 33.9245L42.4995 32.7131V32.1337C44.751 30.5601 46.1247 27.9606 46.1247 25.1916V23.077C46.1247 18.3777 42.4476 14.4451 37.9282 14.308C35.616 14.2401 33.436 15.0859 31.7809 16.6949C30.1246 18.3039 29.2127 20.4616 29.2127 22.7722V25.1916C29.2127 27.9606 30.5853 30.5589 32.8367 32.1325V32.7131L28.0047 33.9245L23.1715 32.7131V32.1337C25.423 30.5601 26.7967 27.9606 26.7967 25.1916V23.077C26.7967 21.6535 26.4546 20.3021 25.8594 19.103ZM20.3037 11.7871L24.163 7.92239L27.56 10.1362L28.21 9.7369C29.8385 8.7375 31.5986 8.00567 33.4407 7.56445L34.1839 7.38607L35.0244 3.4174H40.3142L41.1523 7.38488L41.8955 7.56267C43.7376 8.00449 45.4977 8.73632 47.1263 9.73572L47.7763 10.135L51.1732 7.92121L55.0278 11.7824L53.6576 14.995C52.7251 15.3966 51.8603 15.9619 51.1077 16.6925C51.0582 16.741 51.0157 16.793 50.9673 16.8426C48.1213 12.3122 43.09 9.46579 37.6687 9.46579C32.2085 9.46579 27.163 12.3388 24.3241 16.9152C23.5644 16.119 22.6607 15.474 21.6592 15.0233L20.3037 11.7871ZM15.9247 34.6038V30.7728L15.3219 30.4237C13.458 29.3445 12.3007 27.3387 12.3007 25.1916V22.7722C12.3007 21.1225 12.9519 19.5797 14.1357 18.4309C15.3183 17.2826 16.8909 16.6636 18.5277 16.7274C21.7547 16.8243 24.3807 19.673 24.3807 23.077V25.1916C24.3807 27.3387 23.2222 29.3445 21.3572 30.4261L20.7532 30.7757L20.7579 34.6038L24.9027 35.641C23.8286 36.7414 23.1727 38.2305 23.1727 39.8566V40.7526L19.4048 41.5914L19.5027 41.2488L19.5487 39.0131L13.1778 35.2913L15.9247 34.6038ZM2.6367 32.4497H3.51734L12.2051 37.524L7.82143 55.0827L2.6367 53.3514V32.4497ZM12.4965 56.6432L10.1189 55.8499L14.3775 38.7934L17.1327 40.4023V40.7479L12.598 56.6432H12.4965ZM20.7567 60.1258C20.7567 59.769 20.9006 59.4193 21.1531 59.1665L23.2765 57.0401C23.529 56.7873 23.8782 56.6432 24.2344 56.6432C24.9812 56.6432 25.5887 57.2516 25.5887 57.9994C25.5887 58.3561 25.4448 58.7058 25.1923 58.9586L23.0689 61.085C22.8164 61.3378 22.4672 61.4819 22.111 61.4819C21.3642 61.4819 20.7567 60.8735 20.7567 60.1258ZM24.3807 63.7548C24.3807 63.398 24.5246 63.0484 24.7771 62.7956L26.9005 60.6692C27.153 60.4164 27.5022 60.2722 27.8584 60.2722C28.6052 60.2722 29.2127 60.8806 29.2127 61.6284C29.2127 61.9852 29.0688 62.3348 28.8163 62.5876L26.6929 64.714C26.4404 64.9668 26.0912 65.111 25.735 65.111C24.9882 65.111 24.3807 64.5026 24.3807 63.7548ZM28.0047 67.3838C28.0047 67.0271 28.1486 66.6774 28.4011 66.4246L30.5245 64.2982C30.777 64.0454 31.1262 63.9013 31.4824 63.9013C32.2292 63.9013 32.8367 64.5097 32.8367 65.2574C32.8367 65.6142 32.6928 65.9639 32.4403 66.2167L30.3169 68.3431C30.0644 68.5959 29.7152 68.74 29.359 68.74C28.6122 68.74 28.0047 68.1316 28.0047 67.3838ZM32.983 72.369C32.2362 72.369 31.6287 71.7606 31.6287 71.0129C31.6287 70.6561 31.7726 70.3064 32.0251 70.0536L34.1485 67.9272C34.401 67.6744 34.7502 67.5303 35.1064 67.5303C35.8532 67.5303 36.4607 68.1387 36.4607 68.8865C36.4607 69.2432 36.3168 69.5929 36.0643 69.8457L33.9409 71.9721C33.6884 72.2249 33.3392 72.369 32.983 72.369ZM38.8248 73.5787H38.6012C38.2933 73.5787 37.9984 73.4665 37.769 73.2627L36.8653 72.4647L37.7725 71.5563C38.0963 71.232 38.3476 70.8463 38.5334 70.4322L39.6317 71.3478C39.919 71.5876 40.0847 71.9408 40.0847 72.317C40.0847 73.0128 39.5196 73.5787 38.8248 73.5787ZM49.6579 62.6916H49.4491C49.1459 62.6916 48.8498 62.5841 48.618 62.3892L42.0672 56.9226L40.5194 58.782L46.8809 64.0897C47.167 64.3295 47.3327 64.6827 47.3327 65.059C47.3327 65.7548 46.7676 66.3206 46.0728 66.3206H45.8091C45.516 66.3206 45.2293 66.2167 45.0034 66.0277L38.442 60.5528L36.8942 62.4122L43.2557 67.7205C43.543 67.9585 43.7087 68.3118 43.7087 68.688C43.7087 69.3838 43.1436 69.9497 42.4488 69.9497C41.9852 69.9497 41.5334 69.7849 41.1777 69.4889L38.4815 67.2385C37.8875 66.0229 36.6671 65.1753 35.238 65.1245C35.1684 63.1511 33.5846 61.5652 31.614 61.4955C31.5444 59.5221 29.9606 57.9362 27.99 57.8665C27.9192 55.847 26.2676 54.2239 24.2344 54.2239C23.2417 54.2239 22.2702 54.6267 21.5683 55.3296L19.4449 57.456C19.3181 57.583 19.2131 57.7271 19.1063 57.87L15.3956 55.6403L18.6486 44.2393L26.8038 42.4236C28.9431 41.9446 31.1987 42.0485 33.285 42.7172L35.0645 43.2871L29.0316 46.3078C27.6532 46.9995 26.7967 48.3881 26.7967 49.9321V50.1713C26.7967 52.4058 28.6122 54.2239 30.8436 54.2239C31.5768 54.2239 32.2982 54.0242 32.9252 53.6456L37.4233 50.9445C38.327 50.4023 39.5397 50.521 40.32 51.2239L50.5267 60.4223C50.7998 60.6703 50.9567 61.0224 50.9567 61.391C50.9567 62.1086 50.3745 62.6916 49.6579 62.6916ZM72.7007 48.6374L52.3493 58.8281C52.2833 58.7578 52.2142 58.691 52.1417 58.6261L41.9368 49.4277C41.0426 48.6196 39.8865 48.1755 38.6821 48.1755C37.8014 48.1755 36.9367 48.4153 36.1793 48.8701L31.6794 51.5724C31.427 51.7248 31.1385 51.8045 30.8436 51.8045C29.9435 51.8045 29.2127 51.0727 29.2127 50.1713V49.9321C29.2127 49.3089 29.5583 48.7502 30.114 48.472L36.8524 45.0981C38.0055 44.5199 39.3745 44.3905 40.6173 44.7484L48.2086 46.9197L50.0472 46.9658L72.7007 35.0261V48.6374Z" fill="white"/>
</svg>
