<svg width="76" height="76" viewBox="0 0 76 76" fill="none" xmlns="http://www.w3.org/2000/svg">
    <path d="M67.1875 22.8406C68.1432 21.6676 68.7175 20.1712 68.7175 18.5428V17.2064C68.7175 13.451 65.6666 10.3959 61.9164 10.3959C58.1662 10.3959 55.1154 13.451 55.1154 17.2064V18.5428C55.1154 20.1718 55.6901 21.6688 56.6465 22.8419C55.4811 23.1642 54.3721 23.6681 53.3613 24.334V23.2717C53.3613 18.8517 49.7704 15.2557 45.3565 15.2557H44.412C45.545 13.8746 46.2262 12.1084 46.2262 10.1858V8.9977C46.226 4.58691 42.6425 0.998047 38.2375 0.998047C33.8325 0.998047 30.2489 4.58691 30.2489 8.99785V10.186C30.2489 12.1086 30.9302 13.8748 32.0631 15.2558H31.1186C26.7047 15.2558 23.1138 18.8519 23.1138 23.2719V24.3595C22.0931 23.6813 20.9712 23.1683 19.7915 22.8421C20.7477 21.6687 21.3226 20.172 21.3226 18.5429V17.2065C21.3226 13.4511 18.2718 10.396 14.5215 10.396C10.7713 10.396 7.72051 13.4511 7.72051 17.2065V18.5429C7.72051 20.1714 8.29481 21.6676 9.25046 22.8408C4.36819 24.1892 0.770996 28.6728 0.770996 33.9846V45.9737C0.770996 48.5212 2.84058 50.5937 5.38455 50.5937H6.6117V74.5332C6.6117 75.3421 7.2666 75.998 8.07451 75.998H14.5018C14.5049 75.998 14.5078 75.9976 14.5109 75.9976C14.5139 75.9976 14.5169 75.998 14.5199 75.998H20.9472C21.7551 75.998 22.41 75.3421 22.41 74.5332V50.5937H23.6584C26.1939 50.5937 28.2578 48.5347 28.2712 45.9986C28.7455 46.18 29.2411 46.3169 29.7532 46.4054V74.5332C29.7532 75.3421 30.4081 75.998 31.216 75.998H45.259C46.0669 75.998 46.7218 75.3421 46.7218 74.5332V60.3318C46.7218 59.5229 46.0669 58.867 45.259 58.867C44.4511 58.867 43.7962 59.5229 43.7962 60.3318V73.0684H39.7003V48.3573C39.7003 47.5484 39.0454 46.8925 38.2375 46.8925C37.4296 46.8925 36.7747 47.5484 36.7747 48.3573V73.0684H32.6788V41.9486H43.7962V49.0038C43.7962 49.8126 44.4511 50.4686 45.259 50.4686C46.0669 50.4686 46.7218 49.8126 46.7218 49.0038V46.4056C47.2206 46.3193 47.7041 46.1877 48.167 46.0133C48.1884 48.5425 50.2489 50.5937 52.7796 50.5937H54.0279V74.5332C54.0279 75.3421 54.6828 75.998 55.4907 75.998H61.918C61.9211 75.998 61.924 75.9976 61.9271 75.9976C61.9302 75.9976 61.9331 75.998 61.9362 75.998H68.3635C69.1714 75.998 69.8263 75.3421 69.8263 74.5332V50.5937H71.0534C73.5974 50.5937 75.667 48.5212 75.667 45.9737V33.9846C75.6668 28.6728 72.0696 24.1892 67.1875 22.8406ZM10.646 17.2064C10.646 15.0666 12.3845 13.3256 14.5214 13.3256C16.6583 13.3256 18.3968 15.0666 18.3968 17.2064V18.5428C18.3968 20.6826 16.6583 22.4236 14.5214 22.4236C12.3845 22.4236 10.646 20.6826 10.646 18.5428V17.2064ZM19.4844 73.0684H15.9827V50.5098C15.9827 49.7009 15.3279 49.0449 14.5199 49.0449C13.712 49.0449 13.0571 49.7009 13.0571 50.5098V52.0479C13.0463 52.1196 13.0388 52.1927 13.0388 52.2676V73.0684H9.53732V44.796H19.4844V73.0684ZM25.346 45.9736C25.3462 46.9057 24.589 47.664 23.6583 47.664H22.4099V39.8672C22.4099 39.0583 21.755 38.4024 20.9471 38.4024C20.1392 38.4024 19.4843 39.0583 19.4843 39.8672V41.8662H9.53717V35.2045C9.53717 34.3956 8.88227 33.7397 8.07436 33.7397C7.26645 33.7397 6.61155 34.3956 6.61155 35.2045V47.6639H5.3844C4.45376 47.6639 3.69647 46.9055 3.69647 45.9736V33.9844C3.69647 29.2251 7.56311 25.3531 12.3158 25.3531H16.7267C19.1528 25.3531 21.48 26.3857 23.1115 28.1861C23.112 28.1869 23.1128 28.1875 23.1135 28.1882V38.5084C23.1135 40.6587 23.965 42.6124 25.346 44.0535V45.9736ZM38.2375 3.92773C41.0293 3.92773 43.3004 6.20205 43.3004 8.9977V10.1858C43.3004 12.9813 41.0293 15.2557 38.2375 15.2557C35.4457 15.2557 33.1746 12.9813 33.1746 10.1858V8.9977C33.1746 6.20205 35.4457 3.92773 38.2375 3.92773ZM50.4356 38.5087C50.4356 40.8397 48.8611 42.8081 46.7216 43.4069V23.2719C46.7218 22.4628 46.0669 21.807 45.259 21.807C44.4511 21.807 43.7962 22.463 43.7962 23.2719V39.0189H32.6788V23.2719C32.6788 22.463 32.0239 21.807 31.216 21.807C30.4081 21.807 29.7532 22.463 29.7532 23.2719V43.4067C27.6137 42.8079 26.0393 40.8396 26.0393 38.5086V23.2719C26.0393 20.4673 28.3177 18.1855 31.1184 18.1855H36.7258V22.1885C36.7258 22.9974 37.3807 23.6533 38.1886 23.6533C38.9965 23.6533 39.6514 22.9974 39.6514 22.1885V18.1855H45.3564C48.1571 18.1855 50.4356 20.4671 50.4356 23.2719V38.5087ZM58.041 17.2064C58.041 15.0666 59.7796 13.3256 61.9164 13.3256C64.0533 13.3256 65.7918 15.0666 65.7918 17.2064V18.5428C65.7918 20.6826 64.0533 22.4236 61.9164 22.4236C59.7796 22.4236 58.041 20.6826 58.041 18.5428V17.2064ZM66.9005 73.0684H63.399V52.2676C63.399 52.1927 63.3915 52.1198 63.3807 52.0479V50.5098C63.3807 49.7009 62.7258 49.0449 61.9179 49.0449C61.11 49.0449 60.4551 49.7009 60.4551 50.5098V73.0684H56.9534V44.796H66.9005V73.0684ZM71.0533 47.664H69.8261V35.2046C69.8261 34.3958 69.1712 33.7398 68.3633 33.7398C67.5554 33.7398 66.9005 34.3958 66.9005 35.2046V41.8663H56.9534V39.8674C56.9534 39.0585 56.2985 38.4025 55.4906 38.4025C54.6827 38.4025 54.0278 39.0585 54.0278 39.8674V47.6642H52.7794C51.8488 47.6642 51.0915 46.9058 51.0915 45.9739V44.0927C52.4946 42.6481 53.3612 40.6783 53.3612 38.5087V28.1497C54.991 26.3725 57.3017 25.3534 59.7108 25.3534H64.1218C68.8744 25.3534 72.7411 29.2254 72.7411 33.9847V45.9737H72.7412C72.7412 46.9057 71.9841 47.664 71.0533 47.664Z" fill="white"/>
    <path d="M46.2934 53.5347C46.0213 53.2607 45.6439 53.1055 45.2592 53.1055C44.8745 53.1055 44.4971 53.2609 44.225 53.5347C43.9514 53.8071 43.7964 54.1851 43.7964 54.5703C43.7964 54.9556 43.9514 55.3335 44.225 55.606C44.4971 55.8783 44.8745 56.0352 45.2592 56.0352C45.6439 56.0352 46.0199 55.8784 46.2934 55.606C46.5655 55.3335 46.722 54.9556 46.722 54.5703C46.722 54.1851 46.5655 53.8071 46.2934 53.5347Z" fill="white"/>
    <path d="M39.2226 26.627C38.9505 26.3545 38.5746 26.1978 38.1884 26.1978C37.8037 26.1978 37.4263 26.3543 37.1542 26.627C36.8821 26.8993 36.7256 27.2772 36.7256 27.6626C36.7256 28.0479 36.8821 28.4258 37.1542 28.6981C37.4263 28.9706 37.8037 29.1274 38.1884 29.1274C38.5746 29.1274 38.9505 28.9707 39.2226 28.6981C39.4962 28.4258 39.6512 28.0479 39.6512 27.6626C39.6512 27.2772 39.4962 26.8993 39.2226 26.627Z" fill="white"/>
</svg>
