<svg width="16" height="18" viewBox="0 0 16 18" fill="none" xmlns="http://www.w3.org/2000/svg">
    <path d="M8.7124 5.85254H10.3297C10.5236 5.85254 10.6808 5.69512 10.6808 5.50093V3.87846C10.6808 3.68427 10.5236 3.52686 10.3297 3.52686H8.7124C8.51851 3.52686 8.36133 3.68427 8.36133 3.87846V5.50093C8.36133 5.69512 8.51851 5.85254 8.7124 5.85254ZM9.06348 4.23011H9.97863V5.14936H9.06348V4.23011Z" fill="#164DB9"/>
    <path d="M5.52685 5.85254H7.14411C7.33801 5.85254 7.49518 5.69512 7.49518 5.50093V3.87846C7.49518 3.68427 7.33801 3.52686 7.14411 3.52686H5.52685C5.33295 3.52686 5.17578 3.68427 5.17578 3.87846V5.50093C5.17578 5.69512 5.33295 5.85254 5.52685 5.85254ZM5.87792 4.23011H6.79304V5.14936H5.87792V4.23011Z" fill="#164DB9"/>
    <path d="M8.7124 9.42334H10.3297C10.5236 9.42334 10.6808 9.26596 10.6808 9.0718V7.44969C10.6808 7.25553 10.5236 7.09814 10.3297 7.09814H8.7124C8.51851 7.09814 8.36133 7.25553 8.36133 7.44969V9.0718C8.36133 9.26592 8.51851 9.42334 8.7124 9.42334ZM9.06348 7.80119H9.97863V8.72022H9.06348V7.80119Z" fill="#164DB9"/>
    <path d="M5.52685 9.42334H7.14411C7.33801 9.42334 7.49518 9.26596 7.49518 9.0718V7.44969C7.49518 7.25553 7.33801 7.09814 7.14411 7.09814H5.52685C5.33295 7.09814 5.17578 7.25553 5.17578 7.44969V9.0718C5.17578 9.26592 5.33295 9.42334 5.52685 9.42334ZM5.87792 7.80119H6.79304V8.72022H5.87792V7.80119Z" fill="#164DB9"/>
    <path d="M8.7124 12.9946H10.3297C10.5236 12.9946 10.6808 12.8372 10.6808 12.643V11.0206C10.6808 10.8264 10.5236 10.6689 10.3297 10.6689H8.7124C8.51851 10.6689 8.36133 10.8264 8.36133 11.0206V12.643C8.36133 12.8372 8.51851 12.9946 8.7124 12.9946ZM9.06348 11.3722H9.97863V12.2914H9.06348V11.3722Z" fill="#164DB9"/>
    <path d="M7.14411 12.9946C7.33801 12.9946 7.49518 12.8372 7.49518 12.643V11.0206C7.49518 10.8264 7.33801 10.6689 7.14411 10.6689H5.52685C5.33295 10.6689 5.17578 10.8264 5.17578 11.0206V12.643C5.17578 12.8372 5.33295 12.9946 5.52685 12.9946H7.14411ZM5.87792 11.3722H6.79304V12.2914H5.87792V11.3722Z" fill="#164DB9"/>
    <path d="M15.1022 17.2969H14.7757V6.67786C14.7757 6.48369 14.6186 6.3263 14.4247 6.3263H12.1373V1.96724C12.1373 1.77307 11.9802 1.61568 11.7863 1.61568H11.0383V0.351562C11.0383 0.157395 10.8811 0 10.6872 0H5.16943C4.97553 0 4.81835 0.157395 4.81835 0.351562V1.61568H4.07039C3.87649 1.61568 3.71931 1.77307 3.71931 1.96724V8.73345H1.79304C1.59914 8.73345 1.44196 8.89084 1.44196 9.08501V17.2969H0.500977C0.307078 17.2969 0.149902 17.4543 0.149902 17.6484C0.149902 17.8426 0.307078 18 0.500977 18H15.1022C15.2961 18 15.4532 17.8426 15.4532 17.6484C15.4532 17.4543 15.2961 17.2969 15.1022 17.2969ZM5.5205 0.703125H10.3361V1.61568H5.5205V0.703125ZM2.14411 9.43657H3.71931V17.2969H2.14411V9.43657ZM4.42146 2.3188H11.4352V17.2969H9.68755V14.9773C9.68755 14.7832 9.53037 14.6258 9.33647 14.6258H6.52015C6.32625 14.6258 6.16908 14.7832 6.16908 14.9773V17.2969H4.42146V2.3188ZM6.87126 17.2969V15.3289H8.98543V17.2969H6.87126ZM12.1373 17.2969V7.02942H14.0736V17.2969H12.1373Z" fill="#164DB9"/>
</svg>
