<svg width="18" height="17" viewBox="0 0 18 17" fill="none" xmlns="http://www.w3.org/2000/svg">
    <path d="M14.6427 10.9896C13.7182 10.0638 12.6178 9.37846 11.4171 8.96358C12.7031 8.07669 13.5479 6.59241 13.5479 4.91406C13.5479 2.20445 11.3465 0 8.64059 0C5.93473 0 3.73332 2.20445 3.73332 4.91406C3.73332 6.59241 4.57814 8.07669 5.86407 8.96358C4.66345 9.37846 3.56303 10.0638 2.63851 10.9896C1.03529 12.595 0.152344 14.7296 0.152344 17H1.47863C1.47863 13.0454 4.69147 9.82812 8.64059 9.82812C12.5897 9.82812 15.8026 13.0454 15.8026 17H17.1288C17.1288 14.7296 16.2459 12.595 14.6427 10.9896ZM8.64059 8.5C6.66605 8.5 5.05961 6.89138 5.05961 4.91406C5.05961 2.93675 6.66605 1.32812 8.64059 1.32812C10.6151 1.32812 12.2216 2.93675 12.2216 4.91406C12.2216 6.89138 10.6151 8.5 8.64059 8.5Z" fill="#164DB9"/>
</svg>
