<svg width="18" height="17" viewBox="0 0 18 17" fill="none" xmlns="http://www.w3.org/2000/svg">
    <path d="M15.7666 11.1586C14.7273 11.1586 13.7067 10.9958 12.7396 10.6757C12.2575 10.5111 11.7085 10.6389 11.394 10.9598L9.48515 12.4028C7.27145 11.2195 5.90785 9.85442 4.74231 7.65429L6.14088 5.79262C6.50424 5.42924 6.63457 4.89844 6.47842 4.40039C6.15746 3.42687 5.99441 2.40541 5.99441 1.36416C5.99446 0.611956 5.38335 0 4.63223 0H1.51453C0.763452 0 0.152344 0.611956 0.152344 1.36407C0.152344 9.98586 7.15681 17 15.7666 17C16.5177 17 17.1288 16.388 17.1288 15.6359V12.5226C17.1288 11.7705 16.5177 11.1586 15.7666 11.1586ZM16.1857 15.6359C16.1857 15.8674 15.9978 16.0556 15.7666 16.0556C7.67672 16.0556 1.09551 9.46519 1.09551 1.36412C1.09551 1.13262 1.2834 0.944474 1.51457 0.944474H4.63227C4.86344 0.944474 5.05133 1.13262 5.05133 1.36412C5.05133 2.50639 5.23047 3.62746 5.58092 4.68952C5.62973 4.84633 5.59012 5.00862 5.43171 5.17376L3.81068 7.32359C3.70201 7.46791 3.68495 7.66116 3.76647 7.82208C5.08953 10.4262 6.69721 12.0361 9.31614 13.3799C9.47547 13.4634 9.67074 13.4459 9.81535 13.3366L12.0115 11.6705C12.1225 11.5593 12.2888 11.5197 12.4389 11.5708C13.5068 11.9241 14.6264 12.103 15.7666 12.103C15.9978 12.103 16.1857 12.2912 16.1857 12.5227V15.6359Z" fill="#164DB9"/>
</svg>
