<svg width="25" height="25" viewBox="0 0 25 25" fill="none" xmlns="http://www.w3.org/2000/svg">
    <path d="M22.9939 16.4096C21.4634 16.4096 19.9605 16.1702 18.5363 15.6996C17.8385 15.4615 16.9806 15.6799 16.5547 16.1173L13.7437 18.2393C10.4838 16.4992 8.47569 14.4918 6.75929 11.2563L8.81886 8.51853C9.35395 7.98416 9.54587 7.20356 9.31593 6.47114C8.84327 5.03951 8.60317 3.53736 8.60317 2.00611C8.60323 0.899933 7.7033 0 6.59718 0H2.00605C0.899933 0 0 0.899933 0 2.00605C0 14.6851 10.3149 24.9999 22.9939 24.9999C24.1001 24.9999 25 24.1 25 22.9939V18.4156C24.9999 17.3095 24.1 16.4096 22.9939 16.4096Z" fill="#B5DA22"/>
</svg>
