<svg width="64" height="75" viewBox="0 0 64 75" fill="none" xmlns="http://www.w3.org/2000/svg">
    <path d="M57.683 28.5112H50.2696V23.4408C52.9792 23.1394 55.0931 20.8341 55.0931 18.0438V18.0059C55.0901 15.7571 53.7373 13.7996 51.7125 12.9826C51.4383 9.36052 48.4514 6.45206 44.7472 6.3567C44.7362 6.35626 44.7251 6.35626 44.7144 6.35626C43.4857 6.36124 42.2896 6.69918 41.2497 7.31486C40.0599 2.88092 35.876 -0.268793 31.1233 0.0205138C28.5317 0.176666 26.1362 1.34327 24.4219 3.22604C23.172 1.2775 21.019 0.0386779 18.6095 0.00015242C18.5943 -0.000140549 18.5791 5.93531e-06 18.5637 0.000445389C14.7765 0.0980041 11.7392 3.13609 11.5841 6.87086C11.5545 6.87042 11.5249 6.87013 11.4952 6.87013C11.4872 6.87028 11.4769 6.87028 11.4675 6.87042C8.01103 6.9529 5.13521 9.52209 4.58979 12.8638C2.39713 13.5879 0.879735 15.6346 0.878418 18.0131V18.0495C0.878418 20.3283 2.28837 22.2835 4.28107 23.088V32.2474C4.28107 32.8543 4.77262 33.346 5.37893 33.346C5.98525 33.346 6.4768 32.8543 6.4768 32.2474V23.4799H8.61178V62.7235C8.61178 65.5185 10.8841 67.7923 13.6772 67.7923H30.2472C30.8535 67.7923 31.3451 67.3006 31.3451 66.6937C31.3451 66.0868 30.8535 65.5951 30.2472 65.5951H13.677C12.0946 65.5951 10.8074 64.3069 10.8074 62.7235V28.9783C12.8358 29.0857 13.99 29.4898 15.2019 29.9142C16.7278 30.4486 18.3056 31.0013 21.4198 31.0013C22.0104 31.0013 22.564 30.9815 23.0896 30.9412V40.8067C23.0896 42.7761 24.6908 44.3785 26.6591 44.3785C28.6273 44.3785 30.2288 42.7763 30.2288 40.8067V34.8241C30.2288 34.0919 30.8239 33.4965 31.5557 33.4965C33.4982 33.4965 35.0784 31.9152 35.0784 29.9715V27.5332C35.0784 26.5503 35.8776 25.7507 36.86 25.7507C37.8424 25.7507 38.6416 26.5503 38.6416 27.5332V30.9065C38.6416 32.9193 40.278 34.5572 42.2896 34.5576H42.2903C42.7986 34.5576 43.2909 34.4543 43.7433 34.2578V62.7237C43.7433 64.307 42.456 65.5952 40.8736 65.5952H35.3202C34.7139 65.5952 34.2223 66.087 34.2223 66.6938C34.2223 67.3007 34.7139 67.7925 35.3202 67.7925H40.8736C43.6668 67.7925 45.9391 65.5187 45.9391 62.7237V27.2037C45.9391 25.7168 46.8131 24.4306 48.0739 23.832V29.6098C48.0739 30.2167 48.5654 30.7084 49.1718 30.7084H57.683C59.4756 30.7084 60.9338 32.1677 60.9338 33.9613V36.4099C60.9338 37.0168 61.4254 37.5086 62.0317 37.5086C62.638 37.5086 63.1296 37.0168 63.1296 36.4099V33.9613C63.1296 30.956 60.6862 28.5112 57.683 28.5112ZM23.0894 28.7366C22.5712 28.7817 22.0185 28.804 21.4196 28.804C18.6786 28.804 17.3422 28.336 15.9272 27.8404C14.5919 27.3727 13.217 26.8912 10.8074 26.7781V23.4799H19.3622C21.4174 23.4799 23.0894 25.1529 23.0894 27.2094V28.7366ZM43.7433 27.2037V30.9065C43.7433 31.2948 43.5921 31.66 43.3176 31.9347C43.0432 32.2092 42.6784 32.3604 42.2902 32.3604H42.2899C41.4889 32.3602 40.8372 31.7081 40.8372 30.9065V27.5332C40.8372 25.3388 39.053 23.5534 36.8599 23.5534C34.6668 23.5534 32.8825 25.3388 32.8825 27.5332V29.9715C32.8825 30.7036 32.2872 31.2992 31.5556 31.2992C29.6131 31.2992 28.0329 32.8805 28.0329 34.8241V40.8067C28.0329 41.5646 27.4166 42.1813 26.6589 42.1813C25.9014 42.1813 25.2851 41.5646 25.2851 40.8067V27.2094C25.2851 23.9413 22.6282 21.2826 19.3622 21.2826H6.30509C4.52348 21.2826 3.074 19.8323 3.074 18.0495V18.0137C3.07488 16.4253 4.21242 15.0854 5.77885 14.8275C6.29104 14.7432 6.67412 14.3115 6.6974 13.7926C6.81289 11.209 8.92358 9.1361 11.5059 9.0674C11.8357 9.06887 12.1662 9.10651 12.4884 9.17902C12.8374 9.25754 13.2029 9.1613 13.4679 8.92033C13.7327 8.67951 13.8637 8.32472 13.8187 7.9695C13.7914 7.75285 13.7767 7.53254 13.7753 7.31471C13.7753 7.30812 13.7751 7.30168 13.775 7.29523C13.7081 4.56227 15.8694 2.28033 18.5974 2.19742C20.7164 2.24122 22.5431 3.63326 23.1474 5.66764C23.2714 6.08512 23.6298 6.38981 24.0614 6.44459C24.4929 6.49997 24.9163 6.29401 25.1405 5.92106C26.4443 3.75177 28.7302 2.36588 31.2553 2.21368C35.4798 1.95865 39.1229 5.19054 39.3773 9.41706C39.404 9.85871 39.6925 10.241 40.1095 10.3877C40.5267 10.534 40.9909 10.4159 41.2873 10.088C42.1604 9.12204 43.4059 8.56349 44.707 8.55353C47.438 8.63293 49.6027 10.9163 49.5357 13.6515V13.6521C49.5322 13.6979 49.5297 13.7427 49.5297 13.7905C49.5297 14.3033 49.8842 14.7481 50.3839 14.8617C51.8618 15.1981 52.8953 16.4921 52.8972 18.0072V18.0437C52.8972 19.8264 51.4477 21.2767 49.6661 21.2767C46.4003 21.2769 43.7433 23.9356 43.7433 27.2037Z" fill="#164DB9"/>
    <path d="M49.1716 54.5256H57.6401C58.2464 54.5256 58.7379 54.0339 58.7379 53.427V34.0042C58.7379 33.3973 58.2464 32.9055 57.6401 32.9055H49.1716C48.5653 32.9055 48.0737 33.3973 48.0737 34.0042V53.427C48.0737 54.0337 48.5653 54.5256 49.1716 54.5256ZM50.2695 35.1028H56.5422V52.3284H50.2695V35.1028Z" fill="#164DB9"/>
    <path d="M62.0323 40.3338C61.4259 40.3338 60.9344 40.8256 60.9344 41.4324V53.4695C60.9344 55.2631 59.476 56.7224 57.6835 56.7224H49.1723C48.566 56.7224 48.0744 57.2141 48.0744 57.821V69.5073C48.0744 70.1141 48.566 70.6059 49.1723 70.6059C49.7789 70.6059 50.2724 71.0987 50.2724 71.7044C50.2724 72.3101 49.7789 72.8027 49.1723 72.8027H5.37929C4.77268 72.8027 4.27923 72.3101 4.27923 71.7044C4.27923 71.0987 4.77268 70.6059 5.37929 70.6059C5.98561 70.6059 6.47716 70.1141 6.47716 69.5073V37.3467C6.47716 36.7398 5.98561 36.248 5.37929 36.248C4.77298 36.248 4.28142 36.7398 4.28142 37.3467V68.5966C3.00234 69.0499 2.0835 70.2719 2.0835 71.7044C2.0835 73.5215 3.56196 75 5.37929 75H49.1723C50.9896 75 52.4681 73.5215 52.4681 71.7044C52.4681 70.2719 51.5492 69.0499 50.2702 68.5966V58.9195H57.6835C60.6869 58.9195 63.1301 56.4747 63.1301 53.4694V41.4323C63.1301 40.8255 62.6386 40.3338 62.0323 40.3338Z" fill="#164DB9"/>
    <path d="M23.1006 15.0001C23.7069 15.0001 24.1984 14.5083 24.1984 13.9016C24.1984 13.2949 23.7069 12.8031 23.1006 12.8031C22.4944 12.8031 22.0029 13.2949 22.0029 13.9016C22.0029 14.5083 22.4944 15.0001 23.1006 15.0001Z" fill="#164DB9"/>
    <path d="M18.4166 9.14111C19.0228 9.14111 19.5143 8.64929 19.5143 8.0426C19.5143 7.43591 19.0228 6.94409 18.4166 6.94409C17.8103 6.94409 17.3188 7.43591 17.3188 8.0426C17.3188 8.64929 17.8103 9.14111 18.4166 9.14111Z" fill="#164DB9"/>
    <path d="M43.7403 16.6107C44.3465 16.6107 44.838 16.1189 44.838 15.5122C44.838 14.9055 44.3465 14.4137 43.7403 14.4137C43.134 14.4137 42.6426 14.9055 42.6426 15.5122C42.6426 16.1189 43.134 16.6107 43.7403 16.6107Z" fill="#164DB9"/>
    <path d="M15.0494 56.8916C15.6556 56.8916 16.1471 56.3998 16.1471 55.7931C16.1471 55.1865 15.6556 54.6947 15.0494 54.6947C14.4431 54.6947 13.9517 55.1865 13.9517 55.7931C13.9517 56.3998 14.4431 56.8916 15.0494 56.8916Z" fill="#164DB9"/>
    <path d="M19.7335 62.7505C20.3397 62.7505 20.8312 62.2587 20.8312 61.652C20.8312 61.0453 20.3397 60.5535 19.7335 60.5535C19.1272 60.5535 18.6357 61.0453 18.6357 61.652C18.6357 62.2587 19.1272 62.7505 19.7335 62.7505Z" fill="#164DB9"/>
    <path d="M38.3242 61.4318C38.9305 61.4318 39.4219 60.9399 39.4219 60.3333C39.4219 59.7266 38.9305 59.2347 38.3242 59.2347C37.718 59.2347 37.2266 59.7266 37.2266 60.3333C37.2266 60.9399 37.718 61.4318 38.3242 61.4318Z" fill="#164DB9"/>
</svg>
