<svg width="76" height="76" viewBox="0 0 76 76" fill="none" xmlns="http://www.w3.org/2000/svg">
    <path d="M30.9688 34.1621C31.1216 34.2248 31.2854 34.2565 31.4505 34.2553C31.6157 34.2542 31.779 34.2202 31.931 34.1554C32.0829 34.0906 32.2206 33.9963 32.3358 33.8778C32.4511 33.7594 32.5418 33.6192 32.6026 33.4654C32.6634 33.3116 32.6931 33.1473 32.69 32.9819C32.6869 32.8165 32.651 32.6534 32.5845 32.502C32.518 32.3506 32.4221 32.2139 32.3025 32.0999C32.1828 31.9859 32.0418 31.8968 31.8875 31.8377C28.9967 30.6916 25.2873 30.0605 21.442 30.0605C17.5967 30.0605 13.8874 30.6916 10.9965 31.8377C10.8422 31.8968 10.7012 31.9859 10.5815 32.0999C10.4619 32.2139 10.366 32.3506 10.2995 32.502C10.233 32.6534 10.1972 32.8165 10.1941 32.9819C10.191 33.1473 10.2207 33.3116 10.2815 33.4654C10.3422 33.6192 10.4329 33.7594 10.5482 33.8778C10.6635 33.9963 10.8011 34.0906 10.9531 34.1554C11.105 34.2202 11.2683 34.2542 11.4335 34.2553C11.5987 34.2565 11.7624 34.2248 11.9153 34.1621C14.521 33.1293 17.9041 32.5605 21.442 32.5605C24.9799 32.5605 28.3632 33.1293 30.9688 34.1621Z" fill="#164DB9"/>
    <path d="M62.6345 0.5H57.6415C53.9956 0.5 50.8364 4.47563 48.5054 11.9969C47.4007 15.5617 46.5506 19.7228 45.9834 24.25H20.1935V24.2684C15.1555 24.402 10.4436 25.3403 6.81422 26.948C2.56263 28.8311 0.221191 31.4586 0.221191 34.3464C0.221191 36.8294 1.98702 39.1553 5.21426 40.9505V63.9452C3.31826 65.4643 2.02242 67.6081 1.55762 69.9947C1.42381 70.6686 1.44119 71.3638 1.6085 72.0301C1.7758 72.6965 2.08885 73.3173 2.52502 73.8477C2.94611 74.3638 3.47647 74.7798 4.07775 75.0655C4.67902 75.3513 5.3362 75.4997 6.00176 75.5H51.8609C52.8726 75.5002 53.8545 75.1571 54.6464 74.5267C55.5238 75.1463 56.5679 75.4856 57.6415 75.5H62.6345C66.2804 75.5 69.4396 71.5244 71.7706 64.0031C73.9287 57.0397 75.1172 47.8048 75.1172 38C75.1172 28.1952 73.9287 18.9603 71.7706 11.9969C69.4396 4.47563 66.2804 0.5 62.6345 0.5ZM6.00176 73C5.70483 72.9991 5.41182 72.9321 5.14389 72.8039C4.87597 72.6758 4.63982 72.4896 4.4525 72.2589C4.25106 72.0131 4.10665 71.7256 4.02972 71.4171C3.95279 71.1087 3.94525 70.7869 4.00765 70.4752C4.24729 69.2307 4.78885 68.0644 5.58463 67.0789C6.3804 66.0934 7.40597 65.319 8.571 64.8239C8.23101 65.7925 7.97689 66.7892 7.81159 67.8025C7.50522 69.6063 7.8819 71.4596 8.86794 73H6.00176ZM13.9521 73H13.2283C12.4904 73 11.7772 72.6391 11.2219 71.9844C10.4007 71.0164 10.0468 69.6042 10.2752 68.2067C10.8993 64.3861 12.881 61.188 15.5697 59.4372C15.1016 61.3874 15.0747 63.4178 15.4909 65.3798L16.9888 72.5205C17.024 72.6832 17.0702 72.8433 17.1271 72.9997L13.9521 73ZM16.9074 56.0395C14.0604 56.9745 11.6222 59.0652 9.95205 61.8614C9.1833 61.9773 8.43097 62.184 7.71079 62.4772V40.197C7.7108 39.9651 7.64637 39.7377 7.52471 39.5404C7.40305 39.343 7.22896 39.1835 7.0219 39.0795C4.24685 37.6864 2.71773 36.0055 2.71773 34.3464C2.71773 32.535 4.57905 30.6719 7.82423 29.2344C11.4408 27.6322 16.277 26.75 21.4417 26.75C26.6064 26.75 31.4435 27.6322 35.0592 29.2344C38.3047 30.6719 40.1657 32.5352 40.1657 34.3466C40.1657 36.0056 38.6366 37.6866 35.8615 39.0797C35.6545 39.1836 35.4804 39.3432 35.3588 39.5405C35.2371 39.7378 35.1727 39.9651 35.1727 40.197V50.5772C34.224 50.125 33.2238 49.7902 32.1943 49.5802C30.0414 49.1377 27.8212 49.1377 25.6684 49.5802C23.9858 49.9232 22.3884 50.5983 20.9691 51.566C19.5499 52.5338 18.3373 53.7749 17.402 55.2169C17.2255 55.4859 17.0631 55.7614 16.9074 56.0395ZM39.9284 64.8653L38.4305 72.007C38.3706 72.2873 38.2168 72.5386 37.9945 72.7192C37.7723 72.8998 37.4951 72.9989 37.2089 73H20.6538C20.3676 72.9989 20.0903 72.8998 19.8681 72.7192C19.6459 72.5386 19.4921 72.2873 19.4322 72.007L17.9343 64.8653C17.6317 63.4516 17.6134 61.9918 17.8803 60.5709C18.1471 59.1501 18.6939 57.7967 19.4887 56.5897C20.2438 55.4238 21.2232 54.4201 22.3698 53.6371C23.5164 52.8542 24.8072 52.3078 26.1669 52.0297C27.9904 51.6549 29.871 51.6549 31.6945 52.0297C33.0542 52.3078 34.345 52.8542 35.4916 53.6371C36.6382 54.4201 37.6176 55.4238 38.3727 56.5897C39.1677 57.7966 39.7147 59.15 39.9818 60.5708C40.2489 61.9917 40.2307 63.4516 39.9284 64.8653ZM46.6411 71.9844C46.0852 72.6395 45.3726 73 44.6347 73H40.7354C40.7922 72.8436 40.8384 72.6836 40.8736 72.5209L42.3716 65.3794C42.7881 63.4174 42.7614 61.387 42.2936 59.4367C44.9825 61.1867 46.9635 64.3858 47.5881 68.2064C47.8159 69.6039 47.462 71.0156 46.6411 71.9844ZM40.9553 56.0395C40.7992 55.7614 40.6371 55.4859 40.4606 55.2169C39.6977 54.0521 38.7555 53.0154 37.6692 52.1453V40.9505C40.8964 39.1553 42.6623 36.8294 42.6623 34.3464C42.6623 31.4586 40.3208 28.8308 36.0692 26.948C35.916 26.88 35.7572 26.8155 35.6011 26.75H45.7035C45.3451 30.3412 45.1588 34.1258 45.1588 38C45.1588 46.8367 46.1153 55.1534 47.8738 61.7998C46.205 59.0342 43.7813 56.9677 40.9553 56.0395ZM53.4102 72.2583C53.2229 72.4891 52.9868 72.6754 52.7188 72.8037C52.4509 72.9319 52.1579 72.999 51.8609 73H48.9947C49.9808 71.4596 50.3575 69.6062 50.0511 67.8023C49.8857 66.7891 49.6316 65.7925 49.2917 64.8239C50.4567 65.319 51.4823 66.0934 52.2781 67.0789C53.0739 68.0645 53.6154 69.2308 53.855 70.4753C53.9174 70.787 53.9099 71.1088 53.8329 71.4172C53.756 71.7257 53.6116 72.0132 53.4102 72.2589V72.2583ZM57.6415 73C57.0933 72.9836 56.5616 72.809 56.1102 72.4972C56.4026 71.6966 56.47 70.831 56.305 69.9947C56.0022 68.4343 55.3408 66.966 54.3732 65.7059C53.4057 64.4457 52.1585 63.4284 50.7304 62.7344C50.0987 60.5695 49.5841 58.3721 49.189 56.1517C50.9127 55.6673 54.736 55.0153 59.7432 56.6866C59.9002 56.7449 60.0673 56.771 60.2346 56.7634C60.4019 56.7557 60.5659 56.7144 60.7169 56.642C60.8679 56.5695 61.0028 56.4674 61.1136 56.3416C61.2244 56.2159 61.3088 56.0691 61.3617 55.91C61.4147 55.751 61.4352 55.5829 61.4219 55.4157C61.4086 55.2485 61.3619 55.0858 61.2846 54.9371C61.2072 54.7884 61.1007 54.6568 60.9715 54.5501C60.8423 54.4435 60.693 54.3639 60.5325 54.3163L60.5186 54.3117L60.5009 54.3062C55.1279 52.5203 50.9517 53.0934 48.7763 53.6681C48.0575 48.7603 47.684 43.808 47.6585 38.8478C49.1843 38.3281 53.1316 37.3977 58.4947 39.1878C58.6516 39.2462 58.8187 39.2723 58.986 39.2646C59.1533 39.2569 59.3173 39.2157 59.4683 39.1432C59.6193 39.0708 59.7542 38.9686 59.865 38.8429C59.9758 38.7171 60.0602 38.5704 60.1131 38.4113C60.1661 38.2522 60.1866 38.0841 60.1733 37.917C60.1601 37.7498 60.1133 37.587 60.036 37.4383C59.9586 37.2896 59.8521 37.158 59.7229 37.0514C59.5937 36.9447 59.4444 36.8652 59.2839 36.8175L59.2701 36.8131L59.252 36.8073C53.9979 35.0614 49.8882 35.6309 47.668 36.2363C47.7233 31.653 48.0796 27.0784 48.7346 22.542C50.1575 22.0733 54.2339 21.1003 59.7426 22.9391C59.8996 22.9974 60.0667 23.0235 60.234 23.0159C60.4012 23.0082 60.5653 22.9669 60.7163 22.8945C60.8673 22.822 61.0022 22.7199 61.113 22.5941C61.2238 22.4684 61.3081 22.3216 61.3611 22.1625C61.4141 22.0035 61.4345 21.8354 61.4213 21.6682C61.408 21.501 61.3613 21.3383 61.2839 21.1896C61.2066 21.0409 61.1001 20.9093 60.9709 20.8026C60.8417 20.696 60.6924 20.6164 60.5318 20.5688L60.5179 20.5642L60.5003 20.5588C55.4459 18.8788 51.4521 19.2864 49.1852 19.8192C49.6131 17.4287 50.1819 15.0656 50.8888 12.7423C52.7795 6.64062 55.3035 3 57.6415 3C59.9795 3 62.5035 6.64062 64.3932 12.7378C66.479 19.4688 67.6276 28.4394 67.6276 38C67.6276 47.5606 66.479 56.532 64.3932 63.2622C62.5035 69.3594 59.9795 73 57.6415 73ZM69.3863 63.2622C67.4965 69.3594 64.9725 73 62.6345 73H62.3445C64.0267 71.0733 65.5224 68.0533 66.7775 64.0031C68.9356 57.0397 70.1241 47.8048 70.1241 38C70.1241 28.1952 68.9356 18.9603 66.7775 11.9969C65.5224 7.94672 64.0267 4.92672 62.3445 3H62.6345C64.9725 3 67.4965 6.64062 69.3863 12.7378C71.4721 19.4688 72.6207 28.4394 72.6207 38C72.6207 47.5606 71.4721 56.532 69.3863 63.2622Z" fill="#164DB9"/>
</svg>
