<svg width="86" height="82" viewBox="0 0 86 82" fill="none" xmlns="http://www.w3.org/2000/svg">
    <path d="M74.783 24.1869C74.7977 19.2513 71.31 14.9215 66.4899 13.8917C65.1323 13.6015 64.101 12.5277 63.8624 11.156C63.4204 8.61388 61.4812 6.79507 58.9222 6.52264C56.3721 6.251 54.135 7.61971 53.2223 10.0084C51.7038 13.9841 51.2981 17.9957 52.0154 21.7541C50.1593 20.8997 48.1757 20.3088 46.1141 20.0124C45.5107 19.9258 44.9569 20.3455 44.8762 20.95C44.7958 21.5544 45.2196 22.1148 45.8228 22.2017C46.7556 22.3358 47.67 22.5376 48.5615 22.8024L44.7591 60.1836C42.2318 60.3495 39.6833 60.0106 37.2742 59.1841L41.0444 22.1213C41.4286 22.0798 41.8148 22.046 42.2038 22.0278C42.8115 21.9993 43.2757 21.4815 43.2414 20.8715C43.2069 20.2614 42.6865 19.79 42.0789 19.8186C41.3566 19.8527 40.6422 19.9265 39.9357 20.0321C39.89 20.0357 39.8451 20.0425 39.8009 20.0518C36.2913 20.5988 33.005 22.0208 30.174 24.2275C30.1473 24.2464 30.1213 24.2664 30.0964 24.2877C30.0241 24.3445 29.9504 24.3988 29.8787 24.4566C23.4459 29.6532 20.8846 37.9132 22.5663 45.555C19.0477 44.0547 15.0434 43.6015 10.8384 44.247C8.31379 44.6346 6.50489 46.5348 6.23031 49.0882C5.95483 51.6504 7.31942 53.9331 9.70696 54.9036C10.9953 55.4275 11.8251 56.6642 11.8209 58.0541C11.8108 61.3247 13.3643 64.4636 15.9761 66.4498C16.3894 66.7641 16.9489 66.7449 17.3316 66.4358C17.4002 66.3804 17.4631 66.3157 17.5184 66.242C17.8829 65.7565 17.7832 65.0626 17.2959 64.692C15.2397 63.1283 14.0166 60.6573 14.0244 58.0826C14.0312 55.7761 12.6545 53.7243 10.5168 52.8551C8.76784 52.1441 8.29492 50.521 8.42124 49.3471C8.55275 48.1241 9.35007 46.7163 11.1927 46.4332C14.3462 45.9491 18.9923 45.916 23.4111 48.426C23.844 49.5887 24.3825 50.7246 25.0274 51.8199L17.8344 52.9052C17.2334 52.996 16.8246 53.5589 16.9208 54.1627C17.0172 54.7668 17.5822 55.1828 18.1829 55.092L25.632 53.9679L19.7889 58.6881C19.317 59.0692 19.2463 59.7647 19.6308 60.2421C20.0153 60.7195 20.7091 60.7974 21.1809 60.4162L27.024 55.6961L24.3507 62.7489C24.135 63.3178 24.4214 63.959 24.9907 64.1808C25.3717 64.3296 25.7832 64.2526 26.078 64.0144C26.2232 63.8971 26.3402 63.7408 26.4114 63.5528L28.9927 56.7424C29.9252 57.6052 30.9198 58.3728 31.963 59.0425C33.4776 63.8985 32.4625 68.4388 31.3226 71.4228C30.6561 73.1668 29.1139 73.6487 27.8921 73.5187C26.7197 73.394 25.2357 72.5876 24.9119 70.7254C24.5159 68.4493 22.8047 66.6675 20.5514 66.1861C20.3555 66.1443 20.1573 66.0942 19.9622 66.0371C19.3764 65.8659 18.7679 66.2025 18.6032 66.7885C18.4384 67.3748 18.7796 67.9887 19.3655 68.16C19.6132 68.2324 19.865 68.296 20.1137 68.349C21.4712 68.6393 22.5026 69.7131 22.7412 71.0847C23.1833 73.6268 25.1224 75.4456 27.6814 75.7181C29.2046 75.8803 30.6159 75.4576 31.7004 74.5816C32.4314 73.991 33.0139 73.1942 33.3813 72.2323C34.9012 68.2532 35.3061 64.2383 34.5863 60.4769C34.9106 60.6259 35.238 60.7668 35.5683 60.8989C35.6479 60.9426 35.734 60.9761 35.8247 60.9995C38.9943 62.2211 42.4092 62.6728 45.7652 62.3186C45.8546 62.3193 45.9417 62.3081 46.0256 62.2882C49.827 61.8393 53.5418 60.3556 56.7251 57.7841C63.1579 52.5876 65.7192 44.3276 64.0375 36.6857C67.5561 38.186 71.5604 38.6392 75.7654 37.9937C76.782 37.8376 77.6828 37.4363 78.4139 36.8456C79.4981 35.9698 80.2096 34.6776 80.3735 33.1525C80.649 30.5904 79.2844 28.3077 76.8968 27.337C75.6086 26.8136 74.779 25.5769 74.783 24.1869ZM29.4246 27.8916L27.0771 50.9684C22.5856 43.6033 23.5531 34.0927 29.4246 27.8916ZM29.0245 53.6249L31.8625 25.7254C33.9458 24.1724 36.2921 23.0869 38.7879 22.5043L35.1459 58.3078C32.8718 57.208 30.7805 55.6408 29.0245 53.6249ZM56.2966 55.2209L56.9177 49.1153C56.9793 48.5083 56.5386 47.9613 55.9333 47.8932C55.328 47.8255 54.7871 48.2621 54.7253 48.869L53.8864 57.1143C51.7525 58.527 49.4111 59.4503 47.0052 59.9008L50.7001 23.5787C53.0007 24.5727 55.0942 26.0136 56.8647 27.837L55.093 45.2546C55.0314 45.8615 55.4721 46.4085 56.0775 46.4766C56.3801 46.5105 56.6668 46.4182 56.8853 46.2416C57.1038 46.0651 57.2546 45.8041 57.2856 45.5007L58.8394 30.2243C64.341 38.0585 63.2498 48.786 56.2966 55.2209ZM72.5794 24.1583C72.5726 26.4648 73.9493 28.5166 76.087 29.3859C77.836 30.0969 78.3089 31.72 78.1826 32.8939C78.0511 34.117 77.254 35.5248 75.4112 35.8079C72.2577 36.292 67.6116 36.325 63.1928 33.8151C62.7599 32.6524 62.2214 31.5165 61.5765 30.4212L68.7695 29.3359C68.9679 29.306 69.1451 29.2247 69.2905 29.1072C69.5853 28.8691 69.7476 28.4828 69.683 28.0782C69.5866 27.4742 69.0215 27.0583 68.4209 27.1489L60.9719 28.273L66.8149 23.5529C67.2868 23.1717 67.3575 22.4762 66.973 21.9989C66.5885 21.5215 65.8947 21.4436 65.4229 21.8248L59.5798 26.5448L62.2532 19.4919C62.469 18.9231 62.1825 18.2818 61.6132 18.06C61.0443 17.8379 60.4078 18.119 60.1927 18.688L57.6116 25.498C56.6856 24.6403 55.6911 23.8698 54.6393 23.1932C53.127 18.3391 54.1423 13.801 55.2814 10.8182C55.9482 9.07421 57.4906 8.59201 58.7119 8.72225C59.8843 8.84702 61.3683 9.65334 61.6921 11.5156C62.0881 13.7916 63.7993 15.5734 66.0519 16.0547C69.8456 16.865 72.591 20.2731 72.5794 24.1583Z" fill="#164DB9"/>
</svg>
