<svg width="64" height="75" viewBox="0 0 64 75" fill="none" xmlns="http://www.w3.org/2000/svg">
    <path d="M46.4473 26.7749C45.9577 27.265 45.1612 27.265 44.6717 26.7749C44.2431 26.3458 43.5487 26.346 43.1201 26.7749C42.6917 27.2039 42.6918 27.8996 43.1201 28.3286C43.7927 29.002 44.6761 29.3387 45.5595 29.3387C46.4429 29.3387 47.3263 29.002 47.9987 28.3286C48.4272 27.8996 48.4272 27.2039 47.9987 26.775C47.5704 26.3458 46.8757 26.3458 46.4473 26.7749Z" fill="#164DB9"/>
    <path d="M37.3212 30.5214C36.8318 31.0117 36.0351 31.0117 35.5457 30.5214C35.1172 30.0923 34.4225 30.0923 33.9942 30.5214C33.5657 30.9504 33.5657 31.6461 33.9942 32.075C34.6668 32.7486 35.55 33.0852 36.4334 33.0852C37.3168 33.0852 38.2004 32.7484 38.8728 32.075C39.3013 31.646 39.3013 30.9503 38.8728 30.5212C38.4442 30.0925 37.7495 30.0926 37.3212 30.5214Z" fill="#164DB9"/>
    <path d="M19.779 26.085C19.779 25.4782 19.2878 24.9863 18.6819 24.9863H17.0663C16.4605 24.9863 15.9692 25.4782 15.9692 26.085C15.9692 26.6917 16.4605 27.1836 17.0663 27.1836H18.6819C19.2878 27.1836 19.779 26.6917 19.779 26.085Z" fill="#164DB9"/>
    <path d="M21.9124 30.9188H20.2968C19.6909 30.9188 19.1997 31.4107 19.1997 32.0175C19.1997 32.6242 19.6909 33.1161 20.2968 33.1161H21.9124C22.5183 33.1161 23.0095 32.6242 23.0095 32.0175C23.0095 31.4107 22.5183 30.9188 21.9124 30.9188Z" fill="#164DB9"/>
    <path d="M12.9372 30.7386H11.3217C10.7158 30.7386 10.2246 31.2305 10.2246 31.8373C10.2246 32.444 10.7158 32.9359 11.3217 32.9359H12.9372C13.5431 32.9359 14.0343 32.444 14.0343 31.8373C14.0343 31.2305 13.5431 30.7386 12.9372 30.7386Z" fill="#164DB9"/>
    <path d="M44.3642 34.4238C44.9701 34.4238 45.4613 33.932 45.4613 33.3252C45.4613 32.7184 44.9701 32.2266 44.3642 32.2266C43.7583 32.2266 43.2671 32.7184 43.2671 33.3252C43.2671 33.932 43.7583 34.4238 44.3642 34.4238Z" fill="#164DB9"/>
    <path d="M51.6782 31.0544C52.2841 31.0544 52.7753 30.5626 52.7753 29.9558C52.7753 29.3491 52.2841 28.8572 51.6782 28.8572C51.0722 28.8572 50.5811 29.3491 50.5811 29.9558C50.5811 30.5626 51.0722 31.0544 51.6782 31.0544Z" fill="#164DB9"/>
    <path d="M38.5122 26.66C39.1181 26.66 39.6093 26.1682 39.6093 25.5614C39.6093 24.9546 39.1181 24.4628 38.5122 24.4628C37.9062 24.4628 37.415 24.9546 37.415 25.5614C37.415 26.1682 37.9062 26.66 38.5122 26.66Z" fill="#164DB9"/>
    <path d="M35.0014 53.3933H29.0039C28.398 53.3933 27.9067 53.8852 27.9067 54.4919C27.9067 55.0987 28.398 55.5906 29.0039 55.5906H35.0014C35.6073 55.5906 36.0985 55.0987 36.0985 54.4919C36.0985 53.8852 35.6073 53.3933 35.0014 53.3933Z" fill="#164DB9"/>
    <path d="M33.6122 57.4952H30.394C29.7881 57.4952 29.2969 57.9871 29.2969 58.5939C29.2969 59.2006 29.7881 59.6925 30.394 59.6925H33.6122C34.2181 59.6925 34.7093 59.2006 34.7093 58.5939C34.7093 57.9871 34.2181 57.4952 33.6122 57.4952Z" fill="#164DB9"/>
    <path d="M27.3845 24.7667C27.3845 24.16 26.8933 23.6681 26.2874 23.6681H24.6718C24.0659 23.6681 23.5747 24.16 23.5747 24.7667C23.5747 25.3735 24.0659 25.8654 24.6718 25.8654H26.2874C26.8933 25.8654 27.3845 25.3735 27.3845 24.7667Z" fill="#164DB9"/>
    <path d="M58.6114 36.671H58.3484C58.3641 36.3799 58.3734 36.0871 58.3734 35.7922C58.3734 30.9194 56.2366 26.5378 52.8529 23.5348L56.7458 17.8848C57.0898 17.3853 56.9645 16.7012 56.4658 16.3565C55.967 16.012 55.2838 16.1375 54.9396 16.6369L51.1151 22.1879C50.3985 21.7058 49.6416 21.2794 48.8511 20.9138C48.7967 19.0988 48.4463 17.3571 47.8461 15.7357L53.1301 4.59072C53.6373 3.52094 54.5384 2.73783 55.6675 2.38554C56.7968 2.03339 57.9826 2.16552 59.0067 2.75761C60.0308 3.3497 60.7381 4.3121 60.998 5.46743C61.258 6.62275 61.0314 7.7958 60.3597 8.77051L57.8473 12.4169C57.5032 12.9163 57.6286 13.6005 58.1273 13.9452C58.6261 14.2898 59.3094 14.1642 59.6534 13.6649L62.1658 10.0184C63.1745 8.55444 63.529 6.71958 63.1386 4.98447C62.7481 3.24936 61.6421 1.74408 60.1038 0.854772C58.5657 -0.0343896 56.711 -0.241226 55.015 0.28773C53.3191 0.816686 51.9097 2.04159 51.1479 3.64823L46.6333 13.1708C43.794 8.30762 38.5239 5.03325 32.5039 5.03325C24.5399 5.03325 17.8889 10.7634 16.4421 18.3225C9.73441 20.3662 4.8391 26.6183 4.8391 33.9947C4.8391 34.9061 4.91575 35.7998 5.05969 36.6711H4.6011C2.45573 36.6711 0.710449 38.419 0.710449 40.5672C0.710449 42.7154 2.45588 44.4632 4.6011 44.4632H4.98787L8.87252 67.9535C9.0327 68.9221 9.8605 69.6252 10.841 69.6252H10.9427V73.1689C10.9427 74.1787 11.7629 75 12.7712 75H50.4418C51.4501 75 52.2703 74.1787 52.2703 73.1689V69.625H52.372C53.3525 69.625 54.1803 68.9221 54.3405 67.9534L58.2251 44.4631H58.6119C60.7572 44.4631 62.5025 42.7154 62.5025 40.567C62.5025 38.4187 60.7568 36.671 58.6114 36.671ZM56.1792 35.7922C56.1792 36.0875 56.1684 36.3802 56.1503 36.671H51.0121C51.0167 36.6306 51.0194 36.5895 51.0194 36.5478C51.0194 35.9411 50.5282 35.4492 49.9223 35.4492C49.3164 35.4492 48.8252 35.9411 48.8252 36.5478C48.8252 36.5895 48.828 36.6304 48.8325 36.671H33.3121C33.3166 36.6306 33.3194 36.5895 33.3194 36.5478C33.3194 35.9411 32.8282 35.4492 32.2223 35.4492C31.6164 35.4492 31.1252 35.9411 31.1252 36.5478C31.1252 36.5895 31.1279 36.6304 31.1325 36.671H27.8853C27.8672 36.3802 27.8563 36.0875 27.8563 35.7922C27.8563 27.9729 34.2091 21.6112 42.0177 21.6112C49.8264 21.6112 56.1792 27.9727 56.1792 35.7922ZM32.87 7.2352C35.2556 7.29614 37.4959 7.95122 39.4496 9.05718L35.5598 20.7461C34.5437 21.1851 33.5808 21.7244 32.6832 22.3515C31.5378 21.218 30.2277 20.2512 28.7909 19.4932L32.87 7.2352ZM46.6001 20.0692C45.1455 19.6433 43.6079 19.4139 42.0177 19.4139C40.6899 19.4139 39.3991 19.5743 38.1623 19.8748L41.3366 10.3361C44.2535 12.674 46.23 16.1407 46.6001 20.0692ZM30.5116 7.37158L26.7753 18.5993C25.033 17.9637 23.1537 17.6164 21.1945 17.6164C20.3855 17.6164 19.5901 17.6765 18.8121 17.7907C20.2493 12.3456 24.8463 8.17402 30.5116 7.37158ZM7.03317 33.9946C7.03317 26.1752 13.3859 19.8135 21.1945 19.8135C24.9772 19.8135 28.4179 21.3068 30.9606 23.7351C27.7058 26.7307 25.6623 31.0266 25.6623 35.7921C25.6623 36.087 25.6716 36.3798 25.6873 36.6708H7.28887C7.12241 35.8038 7.03317 34.9097 7.03317 33.9946ZM52.2029 67.4278H46.4847C45.8788 67.4278 45.3876 67.9197 45.3876 68.5264C45.3876 69.1331 45.8788 69.625 46.4847 69.625H50.0758V72.8027H13.1366V69.625H41.3649C41.9708 69.625 42.462 69.1331 42.462 68.5264C42.462 67.9197 41.9708 67.4278 41.3649 67.4278H11.0094L9.92428 60.8658H23.9012C25.5227 63.6643 28.5458 65.5517 32.0028 65.5517C35.4599 65.5517 38.4828 63.6643 40.1045 60.8658H53.2881L52.2029 67.4278ZM32.0028 63.3545C28.0505 63.3545 24.835 60.1346 24.835 56.1767C24.835 52.2189 28.0505 48.999 32.0028 48.999C35.9552 48.999 39.1706 52.2189 39.1706 56.1767C39.1706 60.1346 35.9552 63.3545 32.0028 63.3545ZM58.6114 42.2658H23.3722C22.7663 42.2658 22.2751 42.7577 22.2751 43.3645C22.2751 43.9712 22.7663 44.4631 23.3722 44.4631H56.0006L53.6515 58.6686H41.0267C41.2456 57.8745 41.365 57.0395 41.365 56.1767C41.365 51.0073 37.1653 46.8017 32.003 46.8017C26.8407 46.8017 22.641 51.0073 22.641 56.1767C22.641 57.0395 22.7603 57.8745 22.9793 58.6686H9.56092L7.21178 44.4631H18.2524C18.8583 44.4631 19.3495 43.9712 19.3495 43.3645C19.3495 42.7577 18.8583 42.2658 18.2524 42.2658H4.60095C3.66548 42.2658 2.90452 41.5038 2.90452 40.567C2.90452 39.6303 3.66563 38.8683 4.60095 38.8683H58.6114C59.5469 38.8683 60.3079 39.6304 60.3079 40.567C60.3079 41.5037 59.5469 42.2658 58.6114 42.2658Z" fill="#164DB9"/>
</svg>
