<svg width="76" height="76" viewBox="0 0 76 76" fill="none" xmlns="http://www.w3.org/2000/svg">
    <path d="M8.85608 48.6703C7.81225 48.9987 6.94848 49.7412 6.46619 50.7246C5.33904 52.6768 4.58886 56.3931 5.86156 60.9677C5.9809 61.3965 6.31964 61.729 6.75018 61.8399C7.18073 61.9509 7.63766 61.8234 7.94886 61.5054C8.26007 61.1875 8.37826 60.7275 8.25892 60.2987C7.33143 57.5755 7.46066 54.6026 8.62095 51.9704C8.79234 51.5833 9.09515 51.2695 9.47564 51.0847C9.90633 50.9734 10.245 50.6405 10.3641 50.2114C10.4833 49.7822 10.3647 49.322 10.0531 49.0042C9.74154 48.6863 9.28428 48.559 8.85359 48.6703H8.85608Z" fill="#164DB9"/>
    <path d="M30.6995 45.4635C33.1043 45.4635 35.0538 43.5113 35.0538 41.1031C35.0538 38.695 33.1043 36.7428 30.6995 36.7428C28.2947 36.7428 26.3452 38.695 26.3452 41.1031C26.3452 43.5113 28.2947 45.4635 30.6995 45.4635ZM30.6995 39.2344C31.7302 39.2344 32.5657 40.0711 32.5657 41.1031C32.5657 42.1352 31.7302 42.9719 30.6995 42.9719C29.6689 42.9719 28.8334 42.1352 28.8334 41.1031C28.8334 40.0711 29.6689 39.2344 30.6995 39.2344Z" fill="#164DB9"/>
    <path d="M20.125 15.564C20.812 15.564 21.369 15.0062 21.369 14.3182C21.369 13.6301 20.812 13.0724 20.125 13.0724C19.4379 13.0724 18.8809 13.6301 18.8809 14.3182C18.8809 15.0062 19.4379 15.564 20.125 15.564Z" fill="#164DB9"/>
    <path d="M28.8334 51.6926C29.5205 51.6926 30.0775 51.1348 30.0775 50.4468C30.0775 49.7587 29.5205 49.2009 28.8334 49.2009C28.1464 49.2009 27.5894 49.7587 27.5894 50.4468C27.5894 51.1348 28.1464 51.6926 28.8334 51.6926Z" fill="#164DB9"/>
    <path d="M30.0776 57.9216C30.7647 57.9216 31.3217 57.3639 31.3217 56.6758C31.3217 55.9878 30.7647 55.4301 30.0776 55.4301C29.3905 55.4301 28.8335 55.9878 28.8335 56.6758C28.8335 57.3639 29.3905 57.9216 30.0776 57.9216Z" fill="#164DB9"/>
    <path d="M16.3925 19.3014C17.0796 19.3014 17.6366 18.7436 17.6366 18.0556C17.6366 17.3676 17.0796 16.8098 16.3925 16.8098C15.7054 16.8098 15.1484 17.3676 15.1484 18.0556C15.1484 18.7436 15.7054 19.3014 16.3925 19.3014Z" fill="#164DB9"/>
    <path d="M74.3846 66.8692L57.8917 50.3521L61.1599 20.9571C61.2764 19.9005 60.9379 18.8442 60.2294 18.0526C59.5208 17.261 58.5092 16.8091 57.4476 16.8098H51.4984L53.5038 11.378L65.625 2.88033C66.1641 2.47782 66.2862 1.71915 65.9007 1.16737C65.5152 0.615597 64.7616 0.470463 64.1992 0.839683L51.7584 9.56039C51.5508 9.70556 51.3924 9.9107 51.3043 10.1484L48.846 16.8098H27.9453C27.0874 14.0909 25.6626 11.5855 23.7652 9.45948C22.7541 8.44749 21.508 7.70265 20.1386 7.29176C20.7239 6.03302 21.0441 4.66706 21.0792 3.27899C21.1051 2.58882 20.8438 1.91883 20.3576 1.42895C19.8706 0.936877 19.1988 0.673567 18.5077 0.703889C16.3972 0.689829 14.3558 1.45642 12.7749 2.85666C11.6872 4.03304 10.9916 5.51892 10.7844 7.10863C7.43527 4.09251 5.77317 3.81095 5.29793 3.81095C4.6003 3.80585 4.02576 4.35853 4.00284 5.05677C3.99105 5.38181 4.11129 5.69776 4.3361 5.93251C4.56091 6.16726 4.87112 6.30078 5.19592 6.30258C5.2096 6.30258 6.35789 6.51064 8.95804 8.81664C7.42137 9.04067 5.98931 9.72814 4.85255 10.7875C3.45558 12.3696 2.69172 14.4127 2.70774 16.5245C2.68098 17.1992 2.93009 17.8557 3.39755 18.3424C3.865 18.8291 4.51039 19.1039 5.18472 19.1033H5.28051C6.66699 19.0678 8.03137 18.7472 9.28896 18.1615C9.69647 19.5349 10.4421 20.7836 11.4574 21.7931C13.7644 23.8496 16.5085 25.3535 19.4818 26.1908L20.7881 37.9575C19.9385 38.5887 19.194 39.3506 18.5823 40.2149C18.4395 40.0444 18.2875 39.8818 18.127 39.7278C16.8984 38.6213 15.4083 37.8469 13.7975 37.4779C11.5146 36.9135 7.74878 37.4555 4.99313 38.0136C4.21297 38.1715 3.59144 38.7618 3.3928 39.5336C3.19415 40.3054 3.4533 41.1231 4.06006 41.6389C4.95829 42.4026 6.01204 43.2448 7.10061 44.0147C4.98594 44.7533 3.22312 46.2565 2.15785 48.2293C0.0429054 51.897 -0.370132 57.1593 1.06181 62.307C3.20538 69.9663 8.84856 75.3631 14.2852 75.3631C14.9529 75.364 15.6179 75.2803 16.2646 75.114C16.7298 74.9934 17.1832 74.8312 17.6194 74.6293C18.0545 74.8317 18.5072 74.9939 18.9717 75.114C21.2078 75.6244 23.5537 75.2824 25.5517 74.1547C26.2546 74.924 27.2474 75.3628 28.2887 75.3644H51.7745C52.8029 75.3597 53.7841 74.9317 54.4879 74.1809C56.6424 74.9603 58.9152 75.3607 61.206 75.3644H61.2769C66.0337 75.3671 70.6327 73.6563 74.2341 70.5443C74.7673 70.0829 75.0858 69.4207 75.1136 68.7155C75.1421 68.0261 74.8798 67.3565 74.3908 66.8704L74.3846 66.8692ZM58.1841 54.1693L48.7987 54.1581C49.0322 51.7194 49.9849 49.4053 51.5357 47.5104L58.1841 54.1693ZM58.1915 56.6609L51.5581 63.3036C50.0019 61.4072 49.0409 59.092 48.7962 56.6497L58.1915 56.6609ZM59.9507 58.42L59.9631 67.8284C57.5239 67.5832 55.2116 66.6209 53.3172 65.0627L59.9507 58.42ZM62.4513 67.8272L62.4389 58.4275L69.0885 65.0864C67.1965 66.6393 64.8863 67.5941 62.4513 67.8297V67.8272ZM57.4476 19.3014C57.8015 19.3021 58.1387 19.4526 58.3757 19.7158C58.6128 19.9791 58.7275 20.3304 58.6917 20.683L57.7636 29.03L54.3958 30.7193C51.8502 31.9745 48.8905 32.0819 46.2607 31.0146L50.579 19.3014H57.4476ZM43.9567 30.059C42.6916 29.6309 41.3658 29.4101 40.0304 29.405C38.1099 29.3992 36.2148 29.8451 34.4979 30.7069C31.7135 32.0923 28.4419 32.0923 25.6574 30.7069L22.2984 29.0263L21.369 20.6843C21.3324 20.3314 21.4469 19.9795 21.684 19.7158C21.9212 19.4522 22.2588 19.3016 22.6131 19.3014H47.9266L43.9567 30.059ZM14.534 4.617C15.6816 3.68396 17.1165 3.17771 18.5947 3.18431C18.6114 4.6678 18.1082 6.11021 17.1727 7.26062C16.0316 8.20312 14.5923 8.70753 13.1133 8.68334C13.0888 7.20182 13.5926 5.76009 14.534 4.617ZM5.19592 16.6105C5.18056 15.1308 5.68324 13.6925 6.61666 12.5454C7.756 11.604 9.19302 11.1001 10.6699 11.1239C10.6944 12.6041 10.1936 14.0451 9.25662 15.1902C8.11071 16.1249 6.67374 16.6275 5.19592 16.6105ZM13.2128 20.024C12.2463 19.0542 11.6352 17.7859 11.4786 16.4248C12.5645 14.8877 13.1509 13.0528 13.1581 11.17C15.0312 11.1556 16.8549 10.5664 18.3832 9.48191C19.7507 9.63958 21.0251 10.254 22.001 11.226C23.4481 12.8598 24.5709 14.7549 25.3091 16.8098H22.6131C21.5513 16.809 20.5394 17.2612 19.8308 18.053C19.1222 18.8449 18.784 19.9015 18.9008 20.9584L19.1807 23.4762C16.9812 22.7359 14.952 21.5621 13.2128 20.024ZM21.1302 41.026L21.5233 44.5678C21.0419 44.7909 20.5749 45.0439 20.125 45.3253C19.7861 45.5388 19.4205 45.7064 19.0376 45.8236C19.2544 44.0546 19.9816 42.3874 21.1302 41.026ZM13.1991 39.8923C14.3882 40.161 15.4915 40.7229 16.4089 41.5268C16.8836 41.8722 17.1618 42.4266 17.1553 43.0143L17.1441 43.0517C17.0309 43.4428 16.5345 43.7991 15.7993 44.0097C14.6128 44.2916 13.3748 44.2723 12.1976 43.9536C10.0328 43.108 8.04462 41.865 6.3355 40.2884C8.58144 39.7473 10.906 39.6132 13.1991 39.8923ZM19.5863 72.6983C19.1132 72.5736 18.6582 72.3881 18.2327 72.1464C17.8593 71.9366 17.4044 71.9338 17.0284 72.139C16.5937 72.3825 16.1302 72.5705 15.6487 72.6983C10.9672 73.8968 5.49823 68.9372 3.45668 61.6355C2.20015 57.1219 2.51988 52.5759 4.31012 49.4763C5.12706 47.9094 6.54978 46.7463 8.24642 46.2584C9.55689 45.9425 10.9344 46.0614 12.1715 46.5973C12.7255 46.8212 13.2573 47.0965 13.7602 47.4195C14.5554 47.9263 15.4436 48.269 16.3728 48.4274V50.4344C16.3728 51.1224 16.9298 51.6802 17.6169 51.6802C18.304 51.6802 18.861 51.1224 18.861 50.4344V48.4274C19.7827 48.2709 20.6641 47.9321 21.4536 47.4307C21.5706 47.3572 21.6913 47.2974 21.8107 47.2289L24.5477 71.8736C23.0619 72.7788 21.2844 73.0743 19.5863 72.6983ZM28.2862 72.8715C27.6487 72.8753 27.1116 72.396 27.0421 71.7615L22.6281 31.9764L24.5452 32.9356C28.0299 34.671 32.1254 34.671 35.6101 32.9356C37.9414 31.795 40.6229 31.6017 43.0933 32.3962L30.1548 67.4559C29.9164 68.1013 30.2456 68.8181 30.8901 69.0568C31.5345 69.2956 32.2503 68.9659 32.4887 68.3205L45.3949 33.3492C48.6679 34.6642 52.3458 34.5178 55.5043 32.9468L57.4314 31.9801L55.6387 48.096L49.7579 42.207C49.2648 41.7288 48.6016 41.4674 47.9154 41.4807C47.2105 41.5085 46.5487 41.8279 46.0878 42.3627C39.2946 50.2933 39.7451 62.1245 47.1217 69.514C48.4426 70.8357 49.9418 71.9658 51.5755 72.8715H28.2862ZM72.6018 68.6569C69.4334 71.3841 65.3915 72.8799 61.2134 72.8715H61.2047C58.9259 72.8751 56.6685 72.4298 54.5613 71.5609H54.5551H54.5364C49.3565 69.4106 45.5217 64.9018 44.226 59.4386C42.9304 53.9755 44.3313 48.2215 47.9925 43.9686L49.7691 45.7476C47.4843 48.4424 46.2322 51.8638 46.2371 55.3989C46.2535 63.6712 52.9465 70.3728 61.2072 70.3886C64.7377 70.3933 68.1547 69.1395 70.8464 66.8517L72.6018 68.6569Z" fill="#164DB9"/>
</svg>
