<svg width="60" height="75" viewBox="0 0 60 75" fill="none" xmlns="http://www.w3.org/2000/svg">
    <path d="M18.5137 28.3645C17.9309 28.1171 17.2581 28.3891 17.0108 28.973C16.7635 29.5567 17.0354 30.2305 17.6182 30.4782C20.478 31.6933 22.3259 34.4165 22.3259 37.4157C22.3259 38.0499 22.8392 38.5637 23.4723 38.5637C24.1054 38.5637 24.6187 38.0499 24.6187 37.4157C24.6187 33.493 22.2224 29.9401 18.5137 28.3645Z" fill="#164DB9"/>
    <path d="M55.6206 44.0046C55.3368 42.8735 54.885 41.7999 54.2776 40.8133C54.0689 40.4742 53.6995 40.2677 53.3016 40.2677H49.2958C48.6627 40.2677 48.1494 40.7817 48.1494 41.4157C48.1496 42.0498 48.6629 42.5637 49.296 42.5637H52.6359C52.9663 43.1955 53.2216 43.8661 53.3967 44.5644C53.5273 45.0853 53.9945 45.4329 54.5077 45.4329C54.6001 45.4329 54.6942 45.4216 54.7878 45.398C55.4022 45.2432 55.7749 44.6196 55.6206 44.0046Z" fill="#164DB9"/>
    <path d="M19.9861 25.2714V22.9591C19.9861 22.325 19.4728 21.8111 18.8397 21.8111C18.2066 21.8111 17.6933 22.325 17.6933 22.9591V26.8483L18.4445 27.1247C22.8196 28.7344 25.7594 32.87 25.7594 37.4157V39.8613H3.17519V37.4157C3.17519 32.8701 6.11486 28.7343 10.49 27.1247L11.2411 26.8483V17.155C11.3952 17.1805 11.5527 17.1964 11.7144 17.1964H17.2204C17.3819 17.1964 17.5394 17.1805 17.6935 17.155V17.7551C17.6935 18.3892 18.2068 18.9031 18.8399 18.9031C19.473 18.9031 19.9863 18.3892 19.9863 17.7551V2.6379C19.9863 1.1833 18.7455 0 17.2205 0H11.7145C10.1894 0 8.94862 1.1833 8.94862 2.6379V25.2714C4.09208 27.3934 0.882812 32.177 0.882812 37.4156V71.2118C0.882812 73.3006 2.6101 75 4.73323 75H24.202C26.3251 75 28.0522 73.3005 28.0522 71.2118V37.4156C28.052 32.177 24.8427 27.3935 19.9861 25.2714ZM11.241 2.63775C11.241 2.47603 11.4353 2.29585 11.7142 2.29585H17.2203C17.4991 2.29585 17.6933 2.47618 17.6933 2.63775V4.19693C17.6761 4.19605 17.659 4.19415 17.6414 4.19415H11.241V2.63775ZM11.241 7.68517V6.49H17.6414C17.659 6.49 17.6761 6.4881 17.6933 6.48722V7.68488V14.5582C17.6933 14.72 17.4991 14.9 17.2203 14.9H11.7142C11.4354 14.9 11.241 14.7198 11.241 14.5582V7.68517ZM3.17519 42.1571H25.7593V57.5966H3.17519V42.1571ZM25.7594 71.2118H25.7593C25.7593 72.0346 25.0606 72.7041 24.2017 72.7041H4.73294C3.87398 72.7041 3.17519 72.0347 3.17519 71.2118V69.2754H13.5215C14.1546 69.2754 14.6679 68.7615 14.6679 68.1274C14.6679 67.4932 14.1546 66.9794 13.5215 66.9794H3.17534V59.8924H25.7594V71.2118Z" fill="#164DB9"/>
    <path d="M19.5948 45.5355H9.57317C8.94006 45.5355 8.42676 46.0494 8.42676 46.6835C8.42676 47.3177 8.94021 47.8315 9.57332 47.8315H19.5948C20.2279 47.8315 20.7412 47.3177 20.7412 46.6835C20.7412 46.0494 20.2279 45.5355 19.5948 45.5355Z" fill="#164DB9"/>
    <path d="M17.7287 50.4337H11.4389C10.8058 50.4337 10.2925 50.9476 10.2925 51.5817C10.2925 52.2159 10.8058 52.7297 11.4389 52.7297H17.7287C18.3618 52.7297 18.8751 52.2159 18.8751 51.5817C18.8751 50.9476 18.3618 50.4337 17.7287 50.4337Z" fill="#164DB9"/>
    <path d="M19.3582 66.9795H16.6113C15.9782 66.9795 15.4648 67.4934 15.4648 68.1275C15.4648 68.7615 15.9782 69.2755 16.6113 69.2755H19.3582C19.9913 69.2755 20.5046 68.7616 20.5046 68.1275C20.5044 67.4934 19.9911 66.9795 19.3582 66.9795Z" fill="#164DB9"/>
    <path d="M59.0942 46.7455C59.0942 43.6627 58.0819 40.6038 56.2436 38.1322C55.7768 37.5048 55.0318 37.1304 54.2508 37.1304H51.3873C50.7542 37.1304 50.2409 37.6442 50.2409 38.2784C50.2409 38.9125 50.7542 39.4264 51.3873 39.4264H54.2508C54.3112 39.4264 54.3688 39.4554 54.4048 39.5039C55.9503 41.5819 56.8014 44.1537 56.8014 46.7456C56.8014 53.4313 51.3696 58.8706 44.6932 58.8706C38.0167 58.8706 32.585 53.4313 32.585 46.7456C32.585 44.1537 33.4361 41.5819 34.9814 39.5043C35.0177 39.4557 35.0753 39.4265 35.1356 39.4265H46.1902C46.8233 39.4265 47.3366 38.9126 47.3366 38.2785C47.3366 37.6444 46.8233 37.1305 46.1902 37.1305H35.1359C34.3549 37.1305 33.61 37.5049 33.1429 38.1326C31.3048 40.604 30.2925 43.6629 30.2925 46.7455C30.2925 54.3108 36.1402 60.5338 43.5469 61.1206V69.5237C40.9051 69.6857 38.107 70.4263 37.1513 72.1159C36.8145 72.7119 36.8193 73.4496 37.1636 74.0406C37.5078 74.6324 38.1466 74.9999 38.8307 74.9999H50.5559C51.2399 74.9999 51.8787 74.6324 52.2226 74.0411C52.5672 73.4496 52.5721 72.7118 52.235 72.1155C51.2797 70.4263 48.4816 69.6854 45.8397 69.5236V61.1206C53.2464 60.5338 59.0942 54.3108 59.0942 46.7455ZM49.5831 72.7042H39.8036C40.6804 72.2288 42.3474 71.7844 44.6932 71.7844C47.0394 71.7844 48.7063 72.2287 49.5831 72.7042Z" fill="#164DB9"/>
    <path d="M55.2214 48.1282C54.8624 47.6545 54.2933 47.3715 53.6994 47.3715H35.6871C35.0932 47.3715 34.5241 47.6545 34.1648 48.1283C33.8059 48.6024 33.6871 49.2273 33.8473 49.8003C35.2015 54.6453 39.6615 58.0292 44.6933 58.0292C49.725 58.0292 54.1851 54.6454 55.5394 49.8003C55.6993 49.2273 55.5806 48.6024 55.2214 48.1282ZM44.6932 55.7332C40.8559 55.7332 37.4361 53.2632 36.2059 49.6673H53.1806C51.9502 53.2633 48.5306 55.7332 44.6932 55.7332Z" fill="#164DB9"/>
</svg>
