<svg width="26" height="25" viewBox="0 0 26 25" fill="none" xmlns="http://www.w3.org/2000/svg">
    <path d="M12.3403 19.4487C12.4602 19.5688 12.6026 19.6641 12.7592 19.7291C12.9159 19.7941 13.0838 19.8275 13.2534 19.8275C13.423 19.8275 13.5909 19.7941 13.7476 19.7291C13.9043 19.6641 14.0466 19.5688 14.1665 19.4487L19.0363 14.5722C19.2785 14.3297 19.4145 14.0008 19.4145 13.6578C19.4145 13.3149 19.2785 12.986 19.0363 12.7434C18.7942 12.5009 18.4657 12.3647 18.1232 12.3647C17.7808 12.3647 17.4523 12.5009 17.2101 12.7434L14.5447 15.4126V1.29299C14.5447 0.950032 14.4087 0.621125 14.1665 0.37862C13.9243 0.136116 13.5959 -0.00012207 13.2534 -0.00012207C12.9109 -0.00012207 12.5825 0.136116 12.3403 0.37862C12.0981 0.621125 11.9621 0.950032 11.9621 1.29299V15.4126L9.29668 12.7434C9.05451 12.5009 8.72606 12.3647 8.38359 12.3647C8.04111 12.3647 7.71266 12.5009 7.4705 12.7434C7.22833 12.986 7.09229 13.3149 7.09229 13.6578C7.09229 14.0008 7.22833 14.3297 7.4705 14.5722L12.3403 19.4487Z" fill="#164DB9"/>
    <path d="M24.4445 11.2067C24.1021 11.2067 23.7736 11.3429 23.5314 11.5854C23.2893 11.8279 23.1532 12.1568 23.1532 12.4998V22.4137H3.35313V12.4998C3.35313 12.1568 3.21708 11.8279 2.97491 11.5854C2.73274 11.3429 2.40429 11.2067 2.06182 11.2067C1.71934 11.2067 1.39089 11.3429 1.14872 11.5854C0.906556 11.8279 0.770508 12.1568 0.770508 12.4998V22.8447C0.770508 23.4163 0.997255 23.9645 1.40087 24.3686C1.80448 24.7728 2.3519 24.9999 2.92269 24.9999H23.5837C24.1545 24.9999 24.7019 24.7728 25.1055 24.3686C25.5091 23.9645 25.7358 23.4163 25.7358 22.8447V12.4998C25.7358 12.1568 25.5998 11.8279 25.3576 11.5854C25.1155 11.3429 24.787 11.2067 24.4445 11.2067Z" fill="#164DB9"/>
</svg>
