<svg width="48" height="45" viewBox="0 0 48 45" fill="none" xmlns="http://www.w3.org/2000/svg">
    <path d="M47.4645 24.6653C47.0442 20.4317 45.1554 16.4404 42.1459 13.4267C39.574 10.8513 36.4261 9.19631 33.1138 8.46042V6.13402C34.4666 5.79698 35.4722 4.57069 35.4722 3.11311C35.4722 1.3965 34.0777 0 32.3634 0H25.7801C24.0659 0 22.6713 1.3965 22.6713 3.11311C22.6713 4.57059 23.6769 5.79688 25.0297 6.13402V8.46693C21.7275 9.20592 18.59 10.8586 16.0255 13.4268C15.4642 13.9888 14.9467 14.5783 14.473 15.1911C14.45 15.1893 14.4271 15.1876 14.4037 15.1876H7.88793C7.38302 15.1876 6.97358 15.5975 6.97358 16.1032C6.97358 16.6089 7.38302 17.0188 7.88793 17.0188H13.2288C12.5584 18.1427 12.0179 19.3231 11.6064 20.5381H1.65507C1.15017 20.5381 0.740723 20.948 0.740723 21.4537C0.740723 21.9594 1.15017 22.3693 1.65507 22.3693H11.0897C10.8262 23.5277 10.675 24.7066 10.6359 25.8887H6.59257C6.08766 25.8887 5.67822 26.2986 5.67822 26.8043C5.67822 27.31 6.08766 27.72 6.59257 27.72H10.6651C10.7423 28.9051 10.9325 30.0841 11.236 31.2393H5.31247C4.80757 31.2393 4.39812 31.6492 4.39812 32.1549C4.39812 32.6606 4.80757 33.0706 5.31247 33.0706H11.8195C12.7165 35.4467 14.1183 37.6738 16.0255 39.5836C19.0379 42.6002 23.0277 44.492 27.2599 44.9107C27.8639 44.9704 28.4684 45 29.0721 45C32.64 45 36.1627 43.966 39.1517 42.0168C39.5748 41.7408 39.6945 41.1736 39.4189 40.7499C39.1433 40.3261 38.5769 40.2063 38.1537 40.4822C31.6109 44.7488 22.8484 43.8263 17.3185 38.2887C10.8301 31.7913 10.8301 21.2192 17.3185 14.7217C23.8069 8.22438 34.3642 8.22438 40.8527 14.7217C46.3753 20.2521 47.3016 29.0192 43.055 35.5679C42.78 35.992 42.9004 36.5592 43.3239 36.8345C43.7476 37.1099 44.3137 36.9893 44.5887 36.5652C46.8575 33.0662 47.8789 28.8401 47.4645 24.6653ZM24.5 3.1132C24.5 2.40634 25.0742 1.83133 25.7801 1.83133H32.3634C33.0693 1.83133 33.6435 2.40634 33.6435 3.1132C33.6435 3.82006 33.0693 4.39507 32.3634 4.39507H32.1994H25.9441H25.7801C25.0742 4.39507 24.5 3.81997 24.5 3.1132ZM26.8584 8.15213V6.22631H31.2851V8.14884C29.8151 7.97377 28.328 7.97487 26.8584 8.15213Z" fill="#164DB9"/>
    <path d="M41.4998 38.02C41.2584 38.02 41.0234 38.118 40.8534 38.2883C40.6825 38.4586 40.5854 38.6948 40.5854 38.9355C40.5854 39.1763 40.6825 39.4125 40.8534 39.5828C41.0234 39.754 41.2585 39.8511 41.4998 39.8511C41.7403 39.8511 41.9752 39.754 42.1462 39.5828C42.3163 39.4125 42.4141 39.1763 42.4141 38.9355C42.4141 38.6948 42.3164 38.4586 42.1462 38.2883C41.9752 38.118 41.7402 38.02 41.4998 38.02Z" fill="#164DB9"/>
    <path d="M29.0856 12.3013C21.2644 12.3013 14.9014 18.673 14.9014 26.5051C14.9014 34.3372 21.2644 40.709 29.0856 40.709C36.9068 40.709 43.2698 34.3372 43.2698 26.5051C43.2698 18.673 36.9068 12.3013 29.0856 12.3013ZM29.0856 38.8778C22.2727 38.8778 16.7301 33.3274 16.7301 26.5051C16.7301 19.6829 22.2727 14.1325 29.0856 14.1325C35.8985 14.1325 41.4411 19.6829 41.4411 26.5051C41.4411 33.3274 35.8985 38.8778 29.0856 38.8778Z" fill="#164DB9"/>
    <path d="M34.8693 19.4181L30.3405 23.9531C29.9618 23.7656 29.5358 23.6597 29.0855 23.6597C28.6351 23.6597 28.2092 23.7656 27.8305 23.9531L25.8036 21.9234C25.4465 21.5659 24.8677 21.5659 24.5105 21.9234C24.1534 22.281 24.1534 22.8608 24.5105 23.2183L26.5373 25.248C26.35 25.6273 26.2443 26.0539 26.2443 26.5048C26.2443 28.0737 27.5188 29.3501 29.0855 29.3501C30.6523 29.3501 31.9268 28.0737 31.9268 26.5048C31.9268 26.0539 31.821 25.6273 31.6337 25.248L36.0295 20.846L36.1624 20.713C36.5195 20.3554 36.5195 19.7756 36.1624 19.4181C35.8053 19.0605 35.2266 19.0605 34.8693 19.4181ZM29.0855 27.5189C28.5272 27.5189 28.073 27.064 28.073 26.5049C28.073 25.9458 28.5272 25.491 29.0855 25.491C29.6438 25.491 30.0981 25.9458 30.0981 26.5049C30.0981 27.064 29.6438 27.5189 29.0855 27.5189Z" fill="#164DB9"/>
    <path d="M38.8616 25.6006H38.0144C37.5095 25.6006 37.1001 26.0105 37.1001 26.5161C37.1001 27.0218 37.5095 27.4316 38.0144 27.4316H38.8616C39.3665 27.4316 39.7759 27.0218 39.7759 26.5161C39.7759 26.0105 39.3665 25.6006 38.8616 25.6006Z" fill="#164DB9"/>
    <path d="M20.1569 25.5781H19.3098C18.8049 25.5781 18.3955 25.988 18.3955 26.4937C18.3955 26.9993 18.8049 27.4092 19.3098 27.4092H20.1569C20.6618 27.4092 21.0712 26.9993 21.0712 26.4937C21.0712 25.988 20.6618 25.5781 20.1569 25.5781Z" fill="#164DB9"/>
    <path d="M29.097 18.479C29.6019 18.479 30.0113 18.0691 30.0113 17.5635V16.7153C30.0113 16.2097 29.6019 15.7998 29.097 15.7998C28.5921 15.7998 28.1826 16.2097 28.1826 16.7153V17.5635C28.1826 18.0691 28.5921 18.479 29.097 18.479Z" fill="#164DB9"/>
    <path d="M29.0745 34.5312C28.5696 34.5312 28.1602 34.9411 28.1602 35.4468V36.2949C28.1602 36.8006 28.5696 37.2104 29.0745 37.2104C29.5794 37.2104 29.9888 36.8006 29.9888 36.2949V35.4468C29.9888 34.9411 29.5794 34.5312 29.0745 34.5312Z" fill="#164DB9"/>
    <path d="M1.65505 31.2388C1.41458 31.2388 1.17869 31.3368 1.00862 31.5071C0.838556 31.6774 0.740723 31.9137 0.740723 32.1545C0.740723 32.3963 0.838464 32.6317 1.00862 32.802C1.17878 32.9723 1.41458 33.0703 1.65505 33.0703C1.89552 33.0703 2.13142 32.9723 2.30139 32.802C2.47146 32.6317 2.56938 32.3954 2.56938 32.1545C2.56938 31.9137 2.47155 31.6774 2.30139 31.5071C2.13142 31.3368 1.89552 31.2388 1.65505 31.2388Z" fill="#164DB9"/>
</svg>
