<svg width="46" height="47" viewBox="0 0 46 47" fill="none" xmlns="http://www.w3.org/2000/svg">
    <path d="M35.0418 31.8862L28.4095 35.2976C27.8352 34.7181 27.0399 34.3587 26.1622 34.3587H21.5919C21.3886 34.3587 21.3142 34.3461 21.2918 34.3408C21.2504 34.3127 21.1471 34.2153 21.0633 34.1363L21.0196 34.0951C17.2996 30.5872 14.1562 30.8097 10.5813 32.2226C10.0218 32.4436 10.0112 32.4441 9.45668 32.4694L8.44989 32.4707C8.13562 31.5787 7.28656 30.9375 6.29058 30.9375H2.92784C1.66533 30.9375 0.638184 31.9672 0.638184 33.233V42.0643C0.638184 43.3287 1.66533 44.3573 2.92784 44.3573H6.29049C7.28656 44.3573 8.13562 43.7168 8.44989 42.8257H10.2991C10.5084 42.8439 10.7125 42.8865 10.9115 42.9536L19.6072 45.2821C19.988 45.3855 20.3376 45.4872 20.6757 45.5856C21.7987 45.9124 22.7427 46.1871 23.727 46.187C24.839 46.187 26.0023 45.8364 27.5327 44.8141C27.5404 44.809 27.5479 44.8039 27.5554 44.7985L38.277 37.153C39.6864 36.1461 40.0972 34.3286 39.2323 32.9247C38.3774 31.5406 36.5753 31.0944 35.0418 31.8862ZM6.77861 42.0644C6.77861 42.3294 6.55504 42.5533 6.29049 42.5533H2.92784C2.66319 42.5533 2.43972 42.3294 2.43972 42.0644V33.233C2.43972 32.9667 2.66329 32.7416 2.92784 32.7416H6.29049C6.55513 32.7416 6.77861 32.9667 6.77861 33.233V42.0644ZM37.2313 35.6841L26.5216 43.321C24.3417 44.7739 23.414 44.5038 21.1782 43.8533C20.8324 43.7527 20.4749 43.6487 20.0755 43.5402L11.3775 41.2111C11.0275 41.1024 10.6679 41.0393 10.2989 41.0218H8.58014V34.2757L9.53865 34.2716C10.2242 34.2403 10.4368 34.219 11.2424 33.9008C14.3411 32.6761 16.7323 32.5302 19.7853 35.4093L19.8285 35.4498C20.3541 35.9455 20.6799 36.1626 21.5919 36.1626H26.1622C26.9157 36.1626 27.5287 36.7765 27.5287 37.5311C27.5287 38.2843 26.9157 38.897 26.1622 38.897H18.7528C18.2553 38.897 17.852 39.3008 17.852 39.799C17.852 40.2972 18.2553 40.701 18.7528 40.701H26.1622C27.909 40.701 29.3302 39.279 29.3302 37.5311C29.3302 37.3101 29.3073 37.0943 29.2642 36.8859L35.8661 33.4901C36.4678 33.1796 37.2911 33.2114 37.6995 33.8728C38.0596 34.4574 37.858 35.2363 37.2313 35.6841Z" fill="#164DB9"/>
    <path d="M21.3665 21.3352C20.3914 21.8108 19.7178 22.8133 19.7178 23.9705C19.7178 25.2464 20.5382 26.3335 21.6786 26.7333V28.0767C21.6786 29.7217 23.0139 31.0601 24.6551 31.0601H28.6458C30.2884 31.0601 31.6249 29.7217 31.6249 28.0767V26.7333C32.7653 26.3335 33.5857 25.2463 33.5857 23.9705C33.5857 22.8132 32.9121 21.8107 31.9369 21.3351C32.3313 19.8677 33.1309 18.7751 33.9719 17.629C35.2656 15.8659 36.7318 13.8676 36.7287 10.3477C36.7287 10.0334 36.7157 9.71087 36.6901 9.38894C36.6507 8.89229 36.2177 8.52292 35.7207 8.56125C35.2249 8.60076 34.8548 9.03535 34.8943 9.532C34.9161 9.80648 34.9272 10.0809 34.9272 10.3484C34.9298 13.2767 33.7593 14.8719 32.5201 16.5608C31.5797 17.8422 30.6121 19.1632 30.1509 21.0408H23.1522C22.6911 19.1634 21.7231 17.8425 20.7826 16.5611C19.543 14.8723 18.3722 13.2771 18.3761 10.3487C18.38 7.22619 19.716 5.25421 20.8361 4.14978C22.3783 2.62899 24.4909 1.77424 26.6389 1.80455C26.6475 1.80464 26.6561 1.80464 26.6647 1.80455C28.4148 1.77794 30.17 2.34919 31.603 3.41004C32.0028 3.70617 32.5671 3.62147 32.8628 3.22098C33.1585 2.8204 33.074 2.25556 32.674 1.95943C30.9293 0.667925 28.7911 -0.0268949 26.6516 0.000796897C24.0313 -0.0312245 21.4524 1.01069 19.5722 2.86469C17.615 4.79463 16.5785 7.38187 16.5747 10.3466C16.57 13.868 18.037 15.8666 19.3312 17.6298C20.1723 18.7756 20.9721 19.8681 21.3665 21.3352ZM29.8234 28.0768C29.8234 28.7271 29.2952 29.2561 28.6459 29.2561H24.6552C24.0073 29.2561 23.4802 28.7271 23.4802 28.0768V26.8976H29.8234V28.0768ZM22.6433 22.845H30.6603C31.2801 22.845 31.7843 23.3499 31.7843 23.9705C31.7843 24.5897 31.2801 25.0935 30.6603 25.0935H22.6433C22.0235 25.0935 21.5193 24.5897 21.5193 23.9705C21.5193 23.3499 22.0235 22.845 22.6433 22.845Z" fill="#164DB9"/>
    <path d="M27.5585 6.59049C27.5585 6.09231 27.1552 5.68848 26.6577 5.68848C26.1601 5.68848 25.7568 6.09231 25.7568 6.59049V12.1849C25.7568 12.6831 26.1601 13.0869 26.6577 13.0869C27.1552 13.0869 27.5585 12.6831 27.5585 12.1849V6.59049Z" fill="#164DB9"/>
    <path d="M26.6577 15.3623C26.1601 15.3623 25.7568 15.7661 25.7568 16.2643V16.2695C25.7568 16.7676 26.1601 17.1689 26.6577 17.1689C27.1552 17.1689 27.5585 16.7626 27.5585 16.2644C27.5585 15.7662 27.1552 15.3623 26.6577 15.3623Z" fill="#164DB9"/>
    <path d="M44.6747 10.3423H41.016C40.5185 10.3423 40.1152 10.7462 40.1152 11.2444C40.1152 11.7426 40.5185 12.1465 41.016 12.1465H44.6747C45.1722 12.1465 45.5754 11.7426 45.5754 11.2444C45.5754 10.7462 45.1722 10.3423 44.6747 10.3423Z" fill="#164DB9"/>
    <path d="M39.5019 4.52881C39.6744 4.52881 39.8489 4.4792 40.003 4.37564L43.0387 2.33519C43.4518 2.05754 43.5619 1.49718 43.2846 1.0835C43.0074 0.669904 42.4479 0.559583 42.0347 0.837236L38.999 2.87769C38.5859 3.15534 38.4758 3.71579 38.7531 4.12938C38.927 4.38872 39.2117 4.52881 39.5019 4.52881Z" fill="#164DB9"/>
    <path d="M43.0386 20.1474L40.0029 18.1072C39.5898 17.8296 39.0302 17.9399 38.753 18.3535C38.4758 18.767 38.5859 19.3274 38.9989 19.605L42.0347 21.6452C42.1887 21.7487 42.3632 21.7983 42.5357 21.7983C42.8259 21.7983 43.1107 21.6583 43.2845 21.399C43.5618 20.9853 43.4517 20.425 43.0386 20.1474Z" fill="#164DB9"/>
    <path d="M8.64392 12.1465H12.3001C12.7976 12.1465 13.2009 11.7426 13.2009 11.2444C13.2009 10.7462 12.7976 10.3423 12.3001 10.3423H8.64392C8.14643 10.3423 7.74316 10.7462 7.74316 11.2444C7.74316 11.7426 8.14643 12.1465 8.64392 12.1465Z" fill="#164DB9"/>
    <path d="M10.2758 2.33519L13.3115 4.37564C13.4656 4.4792 13.64 4.52881 13.8126 4.52881C14.1028 4.52881 14.3876 4.38872 14.5614 4.12938C14.8387 3.71579 14.7285 3.15534 14.3155 2.87769L11.2798 0.837236C10.8667 0.559583 10.3072 0.669904 10.0299 1.0835C9.75266 1.49709 9.86273 2.05754 10.2758 2.33519Z" fill="#164DB9"/>
    <path d="M13.3116 18.1072L10.2758 20.1474C9.86273 20.425 9.75265 20.9854 10.0299 21.399C10.2038 21.6583 10.4885 21.7983 10.7787 21.7983C10.9513 21.7983 11.1258 21.7487 11.2798 21.6452L14.3156 19.605C14.7287 19.3274 14.8388 18.767 14.5615 18.3535C14.2843 17.9399 13.7246 17.8296 13.3116 18.1072Z" fill="#164DB9"/>
    <path d="M34.0438 6.2452C34.2194 6.42102 34.4491 6.50879 34.6789 6.50879C34.9095 6.50879 35.1403 6.42038 35.3165 6.24393C35.6682 5.89167 35.667 5.3192 35.3152 4.96684C34.9634 4.61457 34.393 4.61457 34.0412 4.96684C33.6894 5.31911 33.6894 5.89031 34.0412 6.24267L34.0438 6.2452Z" fill="#164DB9"/>
</svg>
