<svg width="34" height="45" viewBox="0 0 34 45" fill="none" xmlns="http://www.w3.org/2000/svg">
    <path d="M16.7779 0C7.62437 0 0.177734 7.45698 0.177734 16.6232C0.177734 19.6408 1.52918 22.8862 1.58582 23.0231C2.0223 24.0606 2.88356 25.6721 3.5046 26.6167L14.8865 43.8862C15.3522 44.5942 16.0416 45 16.7779 45C17.5142 45 18.2036 44.5942 18.6693 43.8872L30.0522 26.6167C30.6742 25.6721 31.5345 24.0606 31.9709 23.0231C32.0276 22.8872 33.3781 19.6418 33.3781 16.6232C33.3781 7.45698 25.9314 0 16.7779 0ZM30.1703 22.2643C29.7807 23.1943 28.979 24.6933 28.4214 25.5401L17.0386 42.8106C16.814 43.1519 16.7427 43.1519 16.5181 42.8106L5.13532 25.5401C4.57775 24.6933 3.77606 23.1933 3.38645 22.2634C3.36985 22.2233 2.13069 19.236 2.13069 16.6232C2.13069 8.53553 8.70143 1.95567 16.7779 1.95567C24.8544 1.95567 31.4251 8.53553 31.4251 16.6232C31.4251 19.2399 30.183 22.235 30.1703 22.2643Z" fill="#164DB9"/>
    <path d="M16.7781 7.82373C11.9318 7.82373 7.98975 11.7722 7.98975 16.6243C7.98975 21.4763 11.9318 25.4248 16.7781 25.4248C21.6244 25.4248 25.5664 21.4763 25.5664 16.6243C25.5664 11.7722 21.6244 7.82373 16.7781 7.82373ZM16.7781 23.4691C13.0098 23.4691 9.94271 20.3987 9.94271 16.6243C9.94271 12.8498 13.0098 9.77941 16.7781 9.77941C20.5463 9.77941 23.6134 12.8498 23.6134 16.6243C23.6134 20.3987 20.5463 23.4691 16.7781 23.4691Z" fill="#164DB9"/>
</svg>
